<svg xmlns="http://www.w3.org/2000/svg" xmlns:xlink="http://www.w3.org/1999/xlink" width="764pt" height="260pt" viewBox="0 0 764 260"><g id="surface1"><path style=" stroke:none;fill-rule:evenodd;fill:rgb(87.889099%,14.892578%,12.156677%);fill-opacity:1;" d="M 124.347656 0.425781 C 196.878906 0.425781 255.675781 58.523438 255.675781 130.191406 C 255.675781 201.863281 196.878906 259.960938 124.347656 259.960938 C 74.085938 259.960938 30.425781 232.058594 8.351563 191.078125 C 28.046875 220.902344 62.160156 240.621094 100.949219 240.621094 C 161.9375 240.621094 211.378906 191.878906 211.378906 131.753906 C 211.378906 71.625 161.9375 22.882813 100.949219 22.882813 C 56.972656 22.882813 19.003906 48.230469 1.242188 84.914063 C 19.835938 35.574219 67.933594 0.425781 124.347656 0.425781 "></path><path style=" stroke:none;fill-rule:evenodd;fill:rgb(100%,100%,100%);fill-opacity:1;" d="M 102.199219 30.996094 C 158.363281 30.996094 203.890625 76.246094 203.890625 132.066406 C 203.890625 187.886719 158.363281 233.136719 102.199219 233.136719 C 46.035156 233.136719 0.503906 187.886719 0.503906 132.066406 C 0.503906 76.246094 46.035156 30.996094 102.199219 30.996094 "></path><path style="fill:none;stroke-width:5.0003;stroke-linecap:butt;stroke-linejoin:miter;stroke:rgb(100%,100%,100%);stroke-opacity:1;stroke-miterlimit:2.61313;" d="M 1021.992188 2290.039063 C 1583.632813 2290.039063 2038.90625 1837.539063 2038.90625 1279.335938 C 2038.90625 721.132813 1583.632813 268.632813 1021.992188 268.632813 C 460.351563 268.632813 5.039063 721.132813 5.039063 1279.335938 C 5.039063 1837.539063 460.351563 2290.039063 1021.992188 2290.039063 Z M 1021.992188 2290.039063 " transform="matrix(0.1,0,0,-0.1,0,260)"></path><path style=" stroke:none;fill-rule:evenodd;fill:rgb(1.177979%,58.006287%,85.15625%);fill-opacity:1;" d="M 132.046875 35.421875 C 141.101563 38.179688 149.617188 42.164063 157.402344 47.175781 C 136.464844 55.871094 116.007813 59.914063 96 59.59375 C 78.488281 59.3125 61.289063 55.683594 44.390625 48.910156 C 54.261719 42.117188 65.398438 37.015625 77.378906 34.027344 C 84.015625 42.082031 94.066406 47.214844 105.316406 47.214844 C 115.90625 47.214844 125.429688 42.667969 132.046875 35.421875 Z M 162.480469 50.667969 C 169.347656 55.703125 175.558594 61.574219 180.953125 68.132813 C 152.433594 78.929688 124.53125 84.097656 97.21875 83.921875 C 71.730469 83.761719 46.71875 78.945313 22.167969 69.710938 C 27.222656 63.3125 33.039063 57.53125 39.480469 52.511719 C 57.910156 60.304688 76.714844 64.480469 95.917969 64.785156 C 117.632813 65.136719 139.808594 60.542969 162.480469 50.667969 Z M 184.300781 72.433594 C 189.746094 79.828125 194.210938 87.984375 197.492188 96.71875 C 165.273438 102.359375 133.507813 105.152344 102.199219 105.136719 C 70.050781 105.117188 38.351563 102.128906 7.09375 96.214844 C 10.113281 88.304688 14.109375 80.867188 18.925781 74.050781 C 44.492188 83.839844 70.574219 88.949219 97.199219 89.117188 C 125.640625 89.300781 154.667969 83.839844 184.300781 72.433594 Z M 199.214844 101.691406 C 202 110.488281 203.613281 119.804688 203.859375 129.457031 L 0.539063 129.457031 C 0.789063 119.617188 2.460938 110.132813 5.34375 101.1875 C 37.132813 107.25 69.417969 110.3125 102.199219 110.332031 C 134.085938 110.351563 166.421875 107.484375 199.214844 101.691406 Z M 203.859375 134.671875 C 203.613281 144.324219 202.003906 153.640625 199.21875 162.4375 C 166.425781 156.648438 134.085938 153.78125 102.199219 153.800781 C 69.414063 153.816406 37.128906 156.882813 5.339844 162.945313 C 2.457031 153.996094 0.789063 144.511719 0.539063 134.671875 Z M 197.496094 167.414063 C 194.214844 176.144531 189.753906 184.304688 184.304688 191.699219 C 154.671875 180.289063 125.644531 174.832031 97.199219 175.011719 C 70.574219 175.179688 44.488281 180.292969 18.921875 190.082031 C 14.101563 183.265625 10.113281 175.828125 7.089844 167.914063 C 38.347656 162.003906 70.050781 159.011719 102.199219 158.996094 C 133.511719 158.976563 165.273438 161.769531 197.496094 167.414063 Z M 180.957031 195.996094 C 175.558594 202.554688 169.351563 208.429688 162.480469 213.464844 C 139.8125 203.589844 117.632813 198.996094 95.917969 199.34375 C 76.710938 199.652344 57.90625 203.824219 39.472656 211.621094 C 33.03125 206.601563 27.21875 200.820313 22.164063 194.421875 C 46.71875 185.1875 71.726563 180.371094 97.21875 180.207031 C 124.53125 180.035156 152.433594 185.203125 180.957031 195.996094 Z M 157.402344 216.957031 C 148.230469 222.859375 138.042969 227.335938 127.15625 230.066406 C 120.535156 222.753906 110.96875 218.160156 100.328125 218.160156 C 90.082031 218.160156 80.832031 222.421875 74.246094 229.265625 C 63.457031 226.203125 53.398438 221.414063 44.394531 215.222656 C 61.292969 208.445313 78.488281 204.820313 96 204.539063 C 116.007813 204.21875 136.46875 208.261719 157.402344 216.957031 "></path><path style="fill:none;stroke-width:10.0006;stroke-linecap:butt;stroke-linejoin:miter;stroke:rgb(13.699341%,12.199402%,12.5%);stroke-opacity:1;stroke-miterlimit:2.61313;" d="M 2871.328125 1767.265625 L 2969.296875 1811.40625 C 2978.632813 1778.59375 2995.703125 1753.515625 3020.351563 1736.328125 C 3045.195313 1718.945313 3076.914063 1710.351563 3115.3125 1710.351563 C 3151.796875 1710.351563 3180.859375 1720.351563 3202.34375 1740.117188 C 3223.867188 1759.84375 3234.609375 1786.328125 3234.609375 1819.492188 C 3234.609375 1862.773438 3197.773438 1901.445313 3124.140625 1935.3125 C 3113.75 1940.273438 3105.976563 1944.0625 3100.351563 1946.289063 C 3017.1875 1985.976563 2961.71875 2021.71875 2934.0625 2053.867188 C 2906.40625 2085.820313 2892.460938 2125.195313 2892.460938 2171.40625 C 2892.460938 2231.523438 2913.4375 2280.15625 2955.195313 2317.460938 C 2996.953125 2354.726563 3051.71875 2373.28125 3119.53125 2373.28125 C 3175.234375 2373.28125 3221.914063 2362.8125 3259.414063 2341.875 C 3296.953125 2320.898438 3322.851563 2290.664063 3337.304688 2251.484375 L 3241.289063 2203.203125 C 3226.132813 2226.367188 3209.570313 2243.203125 3191.445313 2253.867188 C 3173.476563 2264.6875 3152.695313 2270.039063 3129.257813 2270.039063 C 3096.289063 2270.039063 3070.039063 2261.601563 3050.664063 2244.921875 C 3031.132813 2228.085938 3021.445313 2205.585938 3021.445313 2177.421875 C 3021.445313 2133.085938 3064.0625 2091.835938 3149.492188 2053.671875 C 3156.015625 2050.585938 3161.132813 2048.203125 3164.84375 2046.640625 C 3239.53125 2012.96875 3290.78125 1980.15625 3318.789063 1948.203125 C 3346.640625 1916.054688 3360.546875 1876.015625 3360.546875 1828.085938 C 3360.546875 1758.320313 3338.007813 1702.8125 3292.890625 1661.757813 C 3247.8125 1620.664063 3187.03125 1600.039063 3110.195313 1600.039063 C 3045.898438 1600.039063 2993.242188 1614.492188 2952.03125 1643.359375 C 2910.976563 1672.226563 2884.023438 1713.476563 2871.328125 1767.265625 Z M 2871.328125 1767.265625 " transform="matrix(0.1,0,0,-0.1,0,260)"></path><path style="fill:none;stroke-width:10.0006;stroke-linecap:butt;stroke-linejoin:miter;stroke:rgb(13.699341%,12.199402%,12.5%);stroke-opacity:1;stroke-miterlimit:2.61313;" d="M 3474.492188 1619.648438 L 3474.492188 2399.921875 L 3579.84375 2399.921875 L 3579.84375 2018.828125 C 3602.226563 2051.796875 3628.476563 2075.703125 3658.789063 2090.820313 C 3689.101563 2105.9375 3725.898438 2113.476563 3769.257813 2113.476563 C 3805.703125 2113.476563 3836.71875 2107.8125 3862.421875 2096.640625 C 3887.96875 2085.3125 3908.046875 2068.632813 3922.5 2046.484375 C 3931.132813 2033.398438 3937.304688 2018.125 3941.171875 2000.78125 C 3944.882813 1983.242188 3946.835938 1952.65625 3946.835938 1909.179688 L 3946.835938 1619.648438 L 3833.710938 1619.648438 L 3833.710938 1864.84375 C 3833.710938 1927.578125 3825.976563 1969.335938 3810.273438 1989.921875 C 3794.609375 2010.546875 3766.757813 2020.859375 3726.953125 2020.859375 C 3700.703125 2020.859375 3677.460938 2016.210938 3657.03125 2006.796875 C 3636.601563 1997.34375 3620.390625 1984.101563 3608.75 1967.109375 C 3600.46875 1955.585938 3594.648438 1940.976563 3591.484375 1922.929688 C 3588.125 1905.078125 3586.5625 1876.367188 3586.5625 1837.1875 L 3586.5625 1619.648438 Z M 3474.492188 1619.648438 " transform="matrix(0.1,0,0,-0.1,0,260)"></path><path style="fill:none;stroke-width:10.0006;stroke-linecap:butt;stroke-linejoin:miter;stroke:rgb(13.699341%,12.199402%,12.5%);stroke-opacity:1;stroke-miterlimit:2.61313;" d="M 4075.234375 2303.203125 C 4075.234375 2321.757813 4082.265625 2337.734375 4096.171875 2351.132813 C 4110.117188 2364.53125 4126.640625 2371.25 4145.859375 2371.25 C 4165.9375 2371.25 4182.5 2364.726563 4195.703125 2351.835938 C 4208.945313 2338.945313 4215.625 2322.773438 4215.625 2303.203125 C 4215.625 2283.789063 4208.945313 2267.460938 4195.546875 2254.21875 C 4182.148438 2240.976563 4165.585938 2234.296875 4145.859375 2234.296875 C 4126.640625 2234.296875 4110.117188 2241.171875 4096.171875 2254.726563 C 4082.265625 2268.320313 4075.234375 2284.453125 4075.234375 2303.203125 Z M 4090.195313 1619.648438 L 4090.195313 2096.835938 L 4202.226563 2096.835938 L 4202.226563 1619.648438 Z M 4090.195313 1619.648438 " transform="matrix(0.1,0,0,-0.1,0,260)"></path><path style="fill:none;stroke-width:10.0006;stroke-linecap:butt;stroke-linejoin:miter;stroke:rgb(13.699341%,12.199402%,12.5%);stroke-opacity:1;stroke-miterlimit:2.61313;" d="M 4366.5625 1619.648438 L 4366.5625 2001.09375 L 4280.976563 2001.09375 L 4280.976563 2096.835938 L 4366.5625 2096.835938 L 4366.5625 2224.84375 C 4366.5625 2288.242188 4380.15625 2334.960938 4407.109375 2365.234375 C 4434.0625 2395.46875 4475.976563 2410.585938 4532.695313 2410.585938 C 4544.84375 2410.585938 4557.1875 2409.726563 4569.882813 2408.007813 C 4582.734375 2406.445313 4595.585938 2403.710938 4608.632813 2399.921875 L 4608.632813 2301.289063 C 4599.648438 2306.289063 4590.664063 2310.078125 4581.484375 2312.65625 C 4572.539063 2315.234375 4563.164063 2316.40625 4554.023438 2316.40625 C 4527.070313 2316.40625 4507.851563 2308.359375 4496.25 2292.1875 C 4484.414063 2276.210938 4478.632813 2248.90625 4478.632813 2210.585938 L 4478.632813 2096.835938 L 4596.289063 2096.835938 L 4596.289063 2001.09375 L 4478.632813 2001.09375 L 4478.632813 1619.648438 Z M 4366.5625 1619.648438 " transform="matrix(0.1,0,0,-0.1,0,260)"></path><path style="fill:none;stroke-width:10.0006;stroke-linecap:butt;stroke-linejoin:miter;stroke:rgb(13.699341%,12.199402%,12.5%);stroke-opacity:1;stroke-miterlimit:2.61313;" d="M 5124.101563 1619.648438 L 5012.03125 1619.648438 L 5012.03125 1681.484375 C 4992.148438 1654.023438 4968.710938 1633.554688 4942.109375 1620.15625 C 4915.507813 1606.757813 4885.039063 1600.039063 4850.507813 1600.039063 C 4781.445313 1600.039063 4726.992188 1623.085938 4687.1875 1669.296875 C 4647.539063 1715.351563 4627.65625 1778.59375 4627.65625 1858.828125 C 4627.65625 1934.960938 4647.890625 1996.484375 4688.59375 2043.203125 C 4729.101563 2090.117188 4782.148438 2113.476563 4847.5 2113.476563 C 4887.304688 2113.476563 4921.484375 2105.390625 4949.84375 2089.101563 C 4978.203125 2072.773438 4998.984375 2049.414063 5012.03125 2018.984375 L 5012.03125 2096.835938 L 5124.101563 2096.835938 Z M 5015.195313 1859.84375 C 5015.195313 1909.179688 5003.398438 1947.5 4979.804688 1975.15625 C 4956.210938 2002.65625 4923.242188 2016.40625 4880.976563 2016.40625 C 4838.671875 2016.40625 4805.390625 2002.148438 4781.09375 1973.789063 C 4756.953125 1945.429688 4744.804688 1906.09375 4744.804688 1855.742188 C 4744.804688 1805.039063 4756.40625 1766.054688 4779.84375 1738.398438 C 4803.28125 1710.898438 4836.210938 1697.148438 4878.867188 1697.148438 C 4919.21875 1697.148438 4951.953125 1712.109375 4977.148438 1741.992188 C 5002.539063 1771.875 5015.195313 1811.054688 5015.195313 1859.84375 Z M 5015.195313 1859.84375 " transform="matrix(0.1,0,0,-0.1,0,260)"></path><path style=" stroke:none;fill-rule:nonzero;fill:rgb(13.699341%,12.199402%,12.5%);fill-opacity:1;" d="M 287.132813 83.273438 L 296.929688 78.859375 C 297.863281 82.140625 299.570313 84.648438 302.035156 86.367188 C 304.519531 88.105469 307.691406 88.964844 311.53125 88.964844 C 315.179688 88.964844 318.085938 87.964844 320.234375 85.988281 C 322.386719 84.015625 323.460938 81.367188 323.460938 78.050781 C 323.460938 73.722656 319.777344 69.855469 312.414063 66.46875 C 311.375 65.972656 310.597656 65.59375 310.035156 65.371094 C 301.71875 61.402344 296.171875 57.828125 293.40625 54.613281 C 290.640625 51.417969 289.246094 47.480469 289.246094 42.859375 C 289.246094 36.847656 291.34375 31.984375 295.519531 28.253906 C 299.695313 24.527344 305.171875 22.671875 311.953125 22.671875 C 317.523438 22.671875 322.191406 23.71875 325.941406 25.8125 C 329.695313 27.910156 332.285156 30.933594 333.730469 34.851563 L 324.128906 39.679688 C 322.613281 37.363281 320.957031 35.679688 319.144531 34.613281 C 317.347656 33.53125 315.269531 32.996094 312.925781 32.996094 C 309.628906 32.996094 307.003906 33.839844 305.066406 35.507813 C 303.113281 37.191406 302.144531 39.441406 302.144531 42.257813 C 302.144531 46.691406 306.40625 50.816406 314.949219 54.632813 C 315.601563 54.941406 316.113281 55.179688 316.484375 55.335938 C 323.953125 58.703125 329.078125 61.984375 331.878906 65.179688 C 334.664063 68.394531 336.054688 72.398438 336.054688 77.191406 C 336.054688 84.167969 333.800781 89.71875 329.289063 93.824219 C 324.78125 97.933594 318.703125 99.996094 311.019531 99.996094 C 304.589844 99.996094 299.324219 98.550781 295.203125 95.664063 C 291.097656 92.777344 288.402344 88.652344 287.132813 83.273438 "></path><path style=" stroke:none;fill-rule:nonzero;fill:rgb(13.699341%,12.199402%,12.5%);fill-opacity:1;" d="M 347.449219 98.035156 L 347.449219 20.007813 L 357.984375 20.007813 L 357.984375 58.117188 C 360.222656 54.820313 362.847656 52.429688 365.878906 50.917969 C 368.910156 49.40625 372.589844 48.652344 376.925781 48.652344 C 380.570313 48.652344 383.671875 49.21875 386.242188 50.335938 C 388.796875 51.46875 390.804688 53.136719 392.25 55.351563 C 393.113281 56.660156 393.730469 58.1875 394.117188 59.921875 C 394.488281 61.675781 394.683594 64.734375 394.683594 69.082031 L 394.683594 98.035156 L 383.371094 98.035156 L 383.371094 73.515625 C 383.371094 67.242188 382.597656 63.066406 381.027344 61.007813 C 379.460938 58.945313 376.675781 57.914063 372.695313 57.914063 C 370.070313 57.914063 367.746094 58.378906 365.703125 59.320313 C 363.660156 60.265625 362.039063 61.589844 360.875 63.289063 C 360.046875 64.441406 359.464844 65.902344 359.148438 67.707031 C 358.8125 69.492188 358.65625 72.363281 358.65625 76.28125 L 358.65625 98.035156 L 347.449219 98.035156 "></path><path style=" stroke:none;fill-rule:nonzero;fill:rgb(13.699341%,12.199402%,12.5%);fill-opacity:1;" d="M 407.523438 29.679688 C 407.523438 27.824219 408.226563 26.226563 409.617188 24.886719 C 411.011719 23.546875 412.664063 22.875 414.585938 22.875 C 416.59375 22.875 418.25 23.527344 419.570313 24.816406 C 420.894531 26.105469 421.5625 27.722656 421.5625 29.679688 C 421.5625 31.621094 420.894531 33.253906 419.554688 34.578125 C 418.214844 35.902344 416.558594 36.570313 414.585938 36.570313 C 412.664063 36.570313 411.011719 35.882813 409.617188 34.527344 C 408.226563 33.167969 407.523438 31.554688 407.523438 29.679688 Z M 409.019531 98.035156 L 409.019531 50.316406 L 420.222656 50.316406 L 420.222656 98.035156 L 409.019531 98.035156 "></path><path style=" stroke:none;fill-rule:nonzero;fill:rgb(13.699341%,12.199402%,12.5%);fill-opacity:1;" d="M 436.65625 98.035156 L 436.65625 59.890625 L 428.097656 59.890625 L 428.097656 50.316406 L 436.65625 50.316406 L 436.65625 37.515625 C 436.65625 31.175781 438.015625 26.503906 440.710938 23.476563 C 443.40625 20.453125 447.597656 18.941406 453.269531 18.941406 C 454.484375 18.941406 455.71875 19.027344 456.988281 19.199219 C 458.273438 19.355469 459.558594 19.628906 460.863281 20.007813 L 460.863281 29.871094 C 459.964844 29.371094 459.066406 28.992188 458.148438 28.734375 C 457.253906 28.476563 456.316406 28.359375 455.402344 28.359375 C 452.707031 28.359375 450.785156 29.164063 449.625 30.78125 C 448.441406 32.378906 447.863281 35.109375 447.863281 38.941406 L 447.863281 50.316406 L 459.628906 50.316406 L 459.628906 59.890625 L 447.863281 59.890625 L 447.863281 98.035156 L 436.65625 98.035156 "></path><path style=" stroke:none;fill-rule:nonzero;fill:rgb(13.699341%,12.199402%,12.5%);fill-opacity:1;" d="M 512.410156 98.035156 L 501.203125 98.035156 L 501.203125 91.851563 C 499.214844 94.597656 496.871094 96.644531 494.210938 97.984375 C 491.550781 99.324219 488.503906 99.996094 485.050781 99.996094 C 478.144531 99.996094 472.699219 97.691406 468.71875 93.070313 C 464.753906 88.464844 462.765625 82.140625 462.765625 74.117188 C 462.765625 66.503906 464.789063 60.351563 468.859375 55.679688 C 472.910156 50.988281 478.214844 48.652344 484.75 48.652344 C 488.730469 48.652344 492.148438 49.460938 494.984375 51.089844 C 497.820313 52.722656 499.898438 55.058594 501.203125 58.101563 L 501.203125 50.316406 L 512.410156 50.316406 Z M 501.519531 74.015625 C 501.519531 69.082031 500.339844 65.25 497.980469 62.484375 C 495.621094 59.734375 492.324219 58.359375 488.097656 58.359375 C 483.867188 58.359375 480.539063 59.785156 478.109375 62.621094 C 475.695313 65.457031 474.480469 69.390625 474.480469 74.425781 C 474.480469 79.496094 475.640625 83.394531 477.984375 86.160156 C 480.328125 88.910156 483.621094 90.285156 487.886719 90.285156 C 491.921875 90.285156 495.195313 88.789063 497.714844 85.800781 C 500.253906 82.8125 501.519531 78.894531 501.519531 74.015625 "></path><path style="fill:none;stroke-width:10.0006;stroke-linecap:butt;stroke-linejoin:miter;stroke:rgb(13.699341%,12.199402%,12.5%);stroke-opacity:1;stroke-miterlimit:2.61313;" d="M 2895.039063 919.140625 L 2895.039063 1457.1875 L 2984.648438 1457.1875 L 2984.648438 919.140625 Z M 2895.039063 919.140625 " transform="matrix(0.1,0,0,-0.1,0,260)"></path><path style="fill:none;stroke-width:10.0006;stroke-linecap:butt;stroke-linejoin:miter;stroke:rgb(13.699341%,12.199402%,12.5%);stroke-opacity:1;stroke-miterlimit:2.61313;" d="M 3124.335938 919.140625 L 3124.335938 1267.539063 L 3201.25 1267.539063 L 3201.25 1210.546875 C 3217.578125 1234.648438 3236.757813 1252.109375 3258.867188 1263.125 C 3280.976563 1274.140625 3307.851563 1279.6875 3339.492188 1279.6875 C 3366.132813 1279.6875 3388.789063 1275.546875 3407.539063 1267.382813 C 3426.171875 1259.101563 3440.859375 1246.953125 3451.40625 1230.742188 C 3457.695313 1221.210938 3462.1875 1210.078125 3465.039063 1197.382813 C 3467.734375 1184.609375 3469.140625 1162.265625 3469.140625 1130.546875 L 3469.140625 919.140625 L 3386.5625 919.140625 L 3386.5625 1098.164063 C 3386.5625 1143.945313 3380.9375 1174.453125 3369.492188 1189.492188 C 3358.046875 1204.53125 3337.695313 1212.070313 3308.632813 1212.070313 C 3289.492188 1212.070313 3272.5 1208.671875 3257.578125 1201.796875 C 3242.65625 1194.882813 3230.820313 1185.234375 3222.34375 1172.8125 C 3216.289063 1164.414063 3212.03125 1153.75 3209.726563 1140.546875 C 3207.304688 1127.539063 3206.132813 1106.5625 3206.132813 1077.96875 L 3206.132813 919.140625 Z M 3124.335938 919.140625 " transform="matrix(0.1,0,0,-0.1,0,260)"></path><path style="fill:none;stroke-width:10.0006;stroke-linecap:butt;stroke-linejoin:miter;stroke:rgb(13.699341%,12.199402%,12.5%);stroke-opacity:1;stroke-miterlimit:2.61313;" d="M 3614.882813 919.140625 L 3614.882813 1197.65625 L 3552.382813 1197.65625 L 3552.382813 1267.539063 L 3614.882813 1267.539063 L 3614.882813 1399.492188 L 3696.679688 1399.492188 L 3696.679688 1267.539063 L 3759.179688 1267.539063 L 3759.179688 1197.65625 L 3696.679688 1197.65625 L 3696.679688 919.140625 Z M 3614.882813 919.140625 " transform="matrix(0.1,0,0,-0.1,0,260)"></path><path style="fill:none;stroke-width:10.0006;stroke-linecap:butt;stroke-linejoin:miter;stroke:rgb(13.699341%,12.199402%,12.5%);stroke-opacity:1;stroke-miterlimit:2.61313;" d="M 4191.210938 1081.601563 L 3905.546875 1081.601563 C 3907.617188 1048.984375 3917.539063 1023.632813 3935.390625 1005.351563 C 3953.125 987.148438 3976.953125 977.96875 4006.640625 977.96875 C 4033.007813 977.96875 4055 983.398438 4072.5 994.179688 C 4090.117188 1004.960938 4105.429688 1022.382813 4118.554688 1046.367188 L 4187.460938 1008.867188 C 4167.421875 973.867188 4142.460938 947.773438 4112.890625 930.546875 C 4083.164063 913.398438 4048.4375 904.84375 4008.4375 904.84375 C 3951.210938 904.84375 3905.546875 921.914063 3871.71875 955.898438 C 3837.773438 990.039063 3820.78125 1035.429688 3820.78125 1092.265625 C 3820.78125 1146.953125 3838.28125 1191.757813 3873.398438 1226.992188 C 3908.398438 1262.109375 3953.398438 1279.6875 4008.4375 1279.6875 C 4065.9375 1279.6875 4110.820313 1263.632813 4142.96875 1231.523438 C 4175.117188 1199.414063 4191.210938 1154.492188 4191.210938 1096.640625 Z M 4106.445313 1135.273438 C 4103.242188 1160.273438 4093.320313 1179.335938 4076.992188 1192.382813 C 4060.664063 1205.546875 4038.398438 1212.070313 4010 1212.070313 C 3983.125 1212.070313 3961.484375 1205.664063 3945.15625 1193.007813 C 3928.828125 1180.195313 3917.382813 1161.015625 3910.820313 1135.273438 Z M 4106.445313 1135.273438 " transform="matrix(0.1,0,0,-0.1,0,260)"></path><path style="fill:none;stroke-width:10.0006;stroke-linecap:butt;stroke-linejoin:miter;stroke:rgb(13.699341%,12.199402%,12.5%);stroke-opacity:1;stroke-miterlimit:2.61313;" d="M 4375.78125 1212.070313 C 4384.53125 1235.039063 4396.210938 1252.109375 4410.625 1263.125 C 4425.039063 1274.140625 4442.890625 1279.6875 4464.375 1279.6875 C 4475.820313 1279.6875 4487.265625 1278.28125 4498.476563 1275.664063 C 4509.648438 1272.890625 4520.585938 1269.023438 4531.40625 1263.867188 L 4501.953125 1196.25 C 4495 1201.171875 4487.421875 1204.804688 4479.179688 1207.03125 C 4471.054688 1209.414063 4461.953125 1210.546875 4451.914063 1210.546875 C 4424.765625 1210.546875 4405.351563 1200.039063 4393.515625 1178.828125 C 4381.679688 1157.617188 4375.78125 1121.992188 4375.78125 1072.070313 L 4375.78125 919.140625 L 4293.984375 919.140625 L 4293.984375 1268.28125 L 4375.78125 1268.28125 Z M 4375.78125 1212.070313 " transform="matrix(0.1,0,0,-0.1,0,260)"></path><path style="fill:none;stroke-width:10.0006;stroke-linecap:butt;stroke-linejoin:miter;stroke:rgb(13.699341%,12.199402%,12.5%);stroke-opacity:1;stroke-miterlimit:2.61313;" d="M 4595.703125 919.140625 L 4595.703125 1267.539063 L 4672.617188 1267.539063 L 4672.617188 1210.546875 C 4688.945313 1234.648438 4708.125 1252.109375 4730.234375 1263.125 C 4752.34375 1274.140625 4779.257813 1279.6875 4810.898438 1279.6875 C 4837.5 1279.6875 4860.15625 1275.546875 4878.90625 1267.382813 C 4897.578125 1259.101563 4912.226563 1246.953125 4922.773438 1230.742188 C 4929.0625 1221.210938 4933.554688 1210.078125 4936.40625 1197.382813 C 4939.101563 1184.609375 4940.507813 1162.265625 4940.507813 1130.546875 L 4940.507813 919.140625 L 4857.96875 919.140625 L 4857.96875 1098.164063 C 4857.96875 1143.945313 4852.304688 1174.453125 4840.859375 1189.492188 C 4829.414063 1204.53125 4809.0625 1212.070313 4780 1212.070313 C 4760.859375 1212.070313 4743.867188 1208.671875 4728.945313 1201.796875 C 4714.023438 1194.882813 4702.1875 1185.234375 4693.710938 1172.8125 C 4687.65625 1164.414063 4683.4375 1153.75 4681.09375 1140.546875 C 4678.671875 1127.539063 4677.5 1106.5625 4677.5 1077.96875 L 4677.5 919.140625 Z M 4595.703125 919.140625 " transform="matrix(0.1,0,0,-0.1,0,260)"></path><path style="fill:none;stroke-width:10.0006;stroke-linecap:butt;stroke-linejoin:miter;stroke:rgb(13.699341%,12.199402%,12.5%);stroke-opacity:1;stroke-miterlimit:2.61313;" d="M 5403.007813 919.140625 L 5321.210938 919.140625 L 5321.210938 964.296875 C 5306.679688 944.257813 5289.609375 929.296875 5270.15625 919.53125 C 5250.742188 909.726563 5228.515625 904.84375 5203.28125 904.84375 C 5152.851563 904.84375 5113.125 921.640625 5084.0625 955.390625 C 5055.117188 989.023438 5040.585938 1035.195313 5040.585938 1093.789063 C 5040.585938 1149.335938 5055.390625 1194.257813 5085.078125 1228.398438 C 5114.6875 1262.617188 5153.398438 1279.6875 5201.09375 1279.6875 C 5230.15625 1279.6875 5255.117188 1273.789063 5275.820313 1261.875 C 5296.523438 1249.960938 5311.71875 1232.890625 5321.210938 1210.703125 L 5321.210938 1267.539063 L 5403.007813 1267.539063 Z M 5323.554688 1094.53125 C 5323.554688 1130.546875 5314.921875 1158.515625 5297.695313 1178.710938 C 5280.46875 1198.789063 5256.40625 1208.828125 5225.546875 1208.828125 C 5194.6875 1208.828125 5170.351563 1198.398438 5152.617188 1177.695313 C 5135 1156.992188 5126.132813 1128.28125 5126.132813 1091.523438 C 5126.132813 1054.492188 5134.609375 1026.015625 5151.71875 1005.859375 C 5168.828125 985.78125 5192.851563 975.742188 5223.984375 975.742188 C 5253.4375 975.742188 5277.382813 986.640625 5295.742188 1008.476563 C 5314.296875 1030.3125 5323.554688 1058.90625 5323.554688 1094.53125 Z M 5323.554688 1094.53125 " transform="matrix(0.1,0,0,-0.1,0,260)"></path><path style="fill:none;stroke-width:10.0006;stroke-linecap:butt;stroke-linejoin:miter;stroke:rgb(13.699341%,12.199402%,12.5%);stroke-opacity:1;stroke-miterlimit:2.61313;" d="M 5553.007813 919.140625 L 5553.007813 1197.65625 L 5490.507813 1197.65625 L 5490.507813 1267.539063 L 5553.007813 1267.539063 L 5553.007813 1399.492188 L 5634.804688 1399.492188 L 5634.804688 1267.539063 L 5697.304688 1267.539063 L 5697.304688 1197.65625 L 5634.804688 1197.65625 L 5634.804688 919.140625 Z M 5553.007813 919.140625 " transform="matrix(0.1,0,0,-0.1,0,260)"></path><path style="fill:none;stroke-width:10.0006;stroke-linecap:butt;stroke-linejoin:miter;stroke:rgb(13.699341%,12.199402%,12.5%);stroke-opacity:1;stroke-miterlimit:2.61313;" d="M 5778.203125 1418.164063 C 5778.203125 1431.71875 5783.359375 1443.398438 5793.515625 1453.164063 C 5803.671875 1462.96875 5815.742188 1467.851563 5829.765625 1467.851563 C 5844.453125 1467.851563 5856.523438 1463.085938 5866.171875 1453.671875 C 5875.820313 1444.257813 5880.703125 1432.460938 5880.703125 1418.164063 C 5880.703125 1403.984375 5875.820313 1392.070313 5866.054688 1382.421875 C 5856.289063 1372.773438 5844.179688 1367.851563 5829.765625 1367.851563 C 5815.742188 1367.851563 5803.671875 1372.890625 5793.515625 1382.8125 C 5783.359375 1392.695313 5778.203125 1404.492188 5778.203125 1418.164063 Z M 5789.140625 919.140625 L 5789.140625 1267.539063 L 5870.9375 1267.539063 L 5870.9375 919.140625 Z M 5789.140625 919.140625 " transform="matrix(0.1,0,0,-0.1,0,260)"></path><path style="fill:none;stroke-width:10.0006;stroke-linecap:butt;stroke-linejoin:miter;stroke:rgb(13.699341%,12.199402%,12.5%);stroke-opacity:1;stroke-miterlimit:2.61313;" d="M 6285.976563 1092.265625 C 6285.976563 1124.648438 6275.3125 1151.992188 6253.945313 1174.453125 C 6232.617188 1196.875 6206.484375 1208.046875 6175.625 1208.046875 C 6144.882813 1208.046875 6118.90625 1196.875 6097.421875 1174.453125 C 6075.976563 1151.992188 6065.15625 1124.648438 6065.15625 1092.265625 C 6065.15625 1059.921875 6075.976563 1032.539063 6097.421875 1010.117188 C 6118.90625 987.65625 6144.882813 976.484375 6175.625 976.484375 C 6206.25 976.484375 6232.226563 987.65625 6253.710938 1010.117188 C 6275.195313 1032.539063 6285.976563 1059.921875 6285.976563 1092.265625 Z M 5978.867188 1093.007813 C 5978.867188 1118.476563 5983.867188 1142.578125 5993.789063 1165.15625 C 6003.671875 1187.851563 6017.96875 1208.046875 6036.484375 1225.625 C 6054.84375 1243.046875 6075.976563 1256.367188 6099.882813 1265.742188 C 6123.671875 1275.039063 6148.632813 1279.6875 6174.84375 1279.6875 C 6201.757813 1279.6875 6226.953125 1275.039063 6250.742188 1265.742188 C 6274.53125 1256.367188 6295.742188 1242.695313 6314.648438 1224.609375 C 6333.4375 1206.679688 6347.851563 1186.484375 6357.617188 1163.90625 C 6367.382813 1141.445313 6372.265625 1117.734375 6372.265625 1093.007813 C 6372.265625 1067.304688 6367.382813 1043.085938 6357.734375 1020.625 C 6348.085938 998.046875 6333.945313 978.125 6315.429688 960.664063 C 6295.742188 942.34375 6274.023438 928.4375 6250.234375 919.023438 C 6226.289063 909.609375 6201.210938 904.84375 6174.84375 904.84375 C 6148.867188 904.84375 6124.0625 909.609375 6100.117188 919.023438 C 6076.328125 928.4375 6055.117188 942.109375 6036.484375 959.921875 C 6017.695313 978.125 6003.28125 998.4375 5993.515625 1021.015625 C 5983.75 1043.476563 5978.867188 1067.539063 5978.867188 1093.007813 Z M 5978.867188 1093.007813 " transform="matrix(0.1,0,0,-0.1,0,260)"></path><path style="fill:none;stroke-width:10.0006;stroke-linecap:butt;stroke-linejoin:miter;stroke:rgb(13.699341%,12.199402%,12.5%);stroke-opacity:1;stroke-miterlimit:2.61313;" d="M 6476.484375 919.140625 L 6476.484375 1267.539063 L 6553.398438 1267.539063 L 6553.398438 1210.546875 C 6569.726563 1234.648438 6588.867188 1252.109375 6611.015625 1263.125 C 6633.125 1274.140625 6660 1279.6875 6691.640625 1279.6875 C 6718.242188 1279.6875 6740.898438 1275.546875 6759.6875 1267.382813 C 6778.320313 1259.101563 6792.96875 1246.953125 6803.515625 1230.742188 C 6809.84375 1221.210938 6814.335938 1210.078125 6817.148438 1197.382813 C 6819.84375 1184.609375 6821.289063 1162.265625 6821.289063 1130.546875 L 6821.289063 919.140625 L 6738.710938 919.140625 L 6738.710938 1098.164063 C 6738.710938 1143.945313 6733.046875 1174.453125 6721.601563 1189.492188 C 6710.15625 1204.53125 6689.84375 1212.070313 6660.78125 1212.070313 C 6641.601563 1212.070313 6624.648438 1208.671875 6609.726563 1201.796875 C 6594.804688 1194.882813 6582.96875 1185.234375 6574.453125 1172.8125 C 6568.4375 1164.414063 6564.179688 1153.75 6561.875 1140.546875 C 6559.414063 1127.539063 6558.28125 1106.5625 6558.28125 1077.96875 L 6558.28125 919.140625 Z M 6476.484375 919.140625 " transform="matrix(0.1,0,0,-0.1,0,260)"></path><path style="fill:none;stroke-width:10.0006;stroke-linecap:butt;stroke-linejoin:miter;stroke:rgb(13.699341%,12.199402%,12.5%);stroke-opacity:1;stroke-miterlimit:2.61313;" d="M 7283.789063 919.140625 L 7201.992188 919.140625 L 7201.992188 964.296875 C 7187.460938 944.257813 7170.351563 929.296875 7150.9375 919.53125 C 7131.484375 909.726563 7109.257813 904.84375 7084.023438 904.84375 C 7033.632813 904.84375 6993.90625 921.640625 6964.804688 955.390625 C 6935.898438 989.023438 6921.367188 1035.195313 6921.367188 1093.789063 C 6921.367188 1149.335938 6936.132813 1194.257813 6965.859375 1228.398438 C 6995.429688 1262.617188 7034.140625 1279.6875 7081.875 1279.6875 C 7110.9375 1279.6875 7135.898438 1273.789063 7156.5625 1261.875 C 7177.304688 1249.960938 7192.460938 1232.890625 7201.992188 1210.703125 L 7201.992188 1267.539063 L 7283.789063 1267.539063 Z M 7204.296875 1094.53125 C 7204.296875 1130.546875 7195.664063 1158.515625 7178.4375 1178.710938 C 7161.210938 1198.789063 7137.148438 1208.828125 7106.289063 1208.828125 C 7075.429688 1208.828125 7051.132813 1198.398438 7033.359375 1177.695313 C 7015.742188 1156.992188 7006.875 1128.28125 7006.875 1091.523438 C 7006.875 1054.492188 7015.351563 1026.015625 7032.460938 1005.859375 C 7049.570313 985.78125 7073.632813 975.742188 7104.765625 975.742188 C 7134.21875 975.742188 7158.125 986.640625 7176.523438 1008.476563 C 7195.039063 1030.3125 7204.296875 1058.90625 7204.296875 1094.53125 Z M 7204.296875 1094.53125 " transform="matrix(0.1,0,0,-0.1,0,260)"></path><path style="fill:none;stroke-width:10.0006;stroke-linecap:butt;stroke-linejoin:miter;stroke:rgb(13.699341%,12.199402%,12.5%);stroke-opacity:1;stroke-miterlimit:2.61313;" d="M 7418.320313 919.140625 L 7418.320313 1488.789063 L 7500.117188 1488.789063 L 7500.117188 919.140625 Z M 7418.320313 919.140625 " transform="matrix(0.1,0,0,-0.1,0,260)"></path><path style=" stroke:none;fill-rule:nonzero;fill:rgb(13.699341%,12.199402%,12.5%);fill-opacity:1;" d="M 289.503906 168.085938 L 289.503906 114.28125 L 298.464844 114.28125 L 298.464844 168.085938 L 289.503906 168.085938 "></path><path style=" stroke:none;fill-rule:nonzero;fill:rgb(13.699341%,12.199402%,12.5%);fill-opacity:1;" d="M 312.433594 168.085938 L 312.433594 133.246094 L 320.125 133.246094 L 320.125 138.945313 C 321.757813 136.535156 323.675781 134.789063 325.886719 133.6875 C 328.097656 132.585938 330.785156 132.03125 333.949219 132.03125 C 336.613281 132.03125 338.878906 132.445313 340.753906 133.261719 C 342.617188 134.089844 344.085938 135.304688 345.140625 136.925781 C 345.769531 137.878906 346.21875 138.992188 346.503906 140.261719 C 346.773438 141.539063 346.914063 143.773438 346.914063 146.945313 L 346.914063 168.085938 L 338.65625 168.085938 L 338.65625 150.183594 C 338.65625 145.605469 338.09375 142.554688 336.949219 141.050781 C 335.804688 139.546875 333.769531 138.792969 330.863281 138.792969 C 328.949219 138.792969 327.25 139.132813 325.757813 139.820313 C 324.265625 140.511719 323.082031 141.476563 322.234375 142.71875 C 321.628906 143.558594 321.203125 144.625 320.972656 145.945313 C 320.730469 147.246094 320.613281 149.34375 320.613281 152.203125 L 320.613281 168.085938 L 312.433594 168.085938 "></path><path style=" stroke:none;fill-rule:nonzero;fill:rgb(13.699341%,12.199402%,12.5%);fill-opacity:1;" d="M 361.488281 168.085938 L 361.488281 140.234375 L 355.238281 140.234375 L 355.238281 133.246094 L 361.488281 133.246094 L 361.488281 120.050781 L 369.667969 120.050781 L 369.667969 133.246094 L 375.917969 133.246094 L 375.917969 140.234375 L 369.667969 140.234375 L 369.667969 168.085938 L 361.488281 168.085938 "></path><path style=" stroke:none;fill-rule:nonzero;fill:rgb(13.699341%,12.199402%,12.5%);fill-opacity:1;" d="M 419.121094 151.839844 L 390.554688 151.839844 C 390.761719 155.101563 391.753906 157.636719 393.539063 159.464844 C 395.3125 161.285156 397.695313 162.203125 400.664063 162.203125 C 403.300781 162.203125 405.5 161.660156 407.25 160.582031 C 409.011719 159.503906 410.542969 157.761719 411.855469 155.363281 L 418.746094 159.113281 C 416.742188 162.613281 414.246094 165.222656 411.289063 166.945313 C 408.316406 168.660156 404.84375 169.515625 400.84375 169.515625 C 395.121094 169.515625 390.554688 167.808594 387.171875 164.410156 C 383.777344 160.996094 382.078125 156.457031 382.078125 150.773438 C 382.078125 145.304688 383.828125 140.824219 387.339844 137.300781 C 390.839844 133.789063 395.339844 132.03125 400.84375 132.03125 C 406.59375 132.03125 411.082031 133.636719 414.296875 136.847656 C 417.511719 140.058594 419.121094 144.550781 419.121094 150.335938 Z M 410.644531 146.472656 C 410.324219 143.972656 409.332031 142.066406 407.699219 140.761719 C 406.066406 139.445313 403.839844 138.792969 401 138.792969 C 398.3125 138.792969 396.148438 139.433594 394.515625 140.699219 C 392.882813 141.980469 391.738281 143.898438 391.082031 146.472656 L 410.644531 146.472656 "></path><path style=" stroke:none;fill-rule:nonzero;fill:rgb(13.699341%,12.199402%,12.5%);fill-opacity:1;" d="M 437.578125 138.792969 C 438.453125 136.496094 439.621094 134.789063 441.0625 133.6875 C 442.503906 132.585938 444.289063 132.03125 446.4375 132.03125 C 447.582031 132.03125 448.726563 132.171875 449.847656 132.433594 C 450.964844 132.710938 452.058594 133.097656 453.140625 133.613281 L 450.195313 140.375 C 449.5 139.882813 448.742188 139.519531 447.917969 139.296875 C 447.105469 139.058594 446.195313 138.945313 445.191406 138.945313 C 442.476563 138.945313 440.535156 139.996094 439.351563 142.117188 C 438.167969 144.238281 437.578125 147.800781 437.578125 152.792969 L 437.578125 168.085938 L 429.398438 168.085938 L 429.398438 133.171875 L 437.578125 133.171875 L 437.578125 138.792969 "></path><path style=" stroke:none;fill-rule:nonzero;fill:rgb(13.699341%,12.199402%,12.5%);fill-opacity:1;" d="M 459.570313 168.085938 L 459.570313 133.246094 L 467.261719 133.246094 L 467.261719 138.945313 C 468.894531 136.535156 470.8125 134.789063 473.023438 133.6875 C 475.234375 132.585938 477.925781 132.03125 481.089844 132.03125 C 483.75 132.03125 486.015625 132.445313 487.890625 133.261719 C 489.757813 134.089844 491.222656 135.304688 492.277344 136.925781 C 492.90625 137.878906 493.355469 138.992188 493.640625 140.261719 C 493.910156 141.539063 494.050781 143.773438 494.050781 146.945313 L 494.050781 168.085938 L 485.796875 168.085938 L 485.796875 150.183594 C 485.796875 145.605469 485.230469 142.554688 484.085938 141.050781 C 482.941406 139.546875 480.90625 138.792969 478 138.792969 C 476.085938 138.792969 474.386719 139.132813 472.894531 139.820313 C 471.402344 140.511719 470.21875 141.476563 469.371094 142.71875 C 468.765625 143.558594 468.34375 144.625 468.109375 145.945313 C 467.867188 147.246094 467.75 149.34375 467.75 152.203125 L 467.75 168.085938 L 459.570313 168.085938 "></path><path style=" stroke:none;fill-rule:nonzero;fill:rgb(13.699341%,12.199402%,12.5%);fill-opacity:1;" d="M 540.300781 168.085938 L 532.121094 168.085938 L 532.121094 163.570313 C 530.667969 165.574219 528.960938 167.070313 527.015625 168.046875 C 525.074219 169.027344 522.851563 169.515625 520.328125 169.515625 C 515.285156 169.515625 511.3125 167.835938 508.40625 164.460938 C 505.511719 161.097656 504.058594 156.480469 504.058594 150.621094 C 504.058594 145.066406 505.539063 140.574219 508.507813 137.160156 C 511.46875 133.738281 515.339844 132.03125 520.109375 132.03125 C 523.015625 132.03125 525.511719 132.621094 527.582031 133.8125 C 529.652344 135.003906 531.171875 136.710938 532.121094 138.929688 L 532.121094 133.246094 L 540.300781 133.246094 Z M 532.355469 150.546875 C 532.355469 146.945313 531.492188 144.148438 529.769531 142.128906 C 528.046875 140.121094 525.640625 139.117188 522.554688 139.117188 C 519.46875 139.117188 517.035156 140.160156 515.261719 142.230469 C 513.5 144.300781 512.613281 147.171875 512.613281 150.847656 C 512.613281 154.550781 513.460938 157.398438 515.171875 159.414063 C 516.882813 161.421875 519.285156 162.425781 522.398438 162.425781 C 525.34375 162.425781 527.738281 161.335938 529.574219 159.152344 C 531.429688 156.96875 532.355469 154.109375 532.355469 150.546875 "></path><path style=" stroke:none;fill-rule:nonzero;fill:rgb(13.699341%,12.199402%,12.5%);fill-opacity:1;" d="M 555.300781 168.085938 L 555.300781 140.234375 L 549.050781 140.234375 L 549.050781 133.246094 L 555.300781 133.246094 L 555.300781 120.050781 L 563.480469 120.050781 L 563.480469 133.246094 L 569.730469 133.246094 L 569.730469 140.234375 L 563.480469 140.234375 L 563.480469 168.085938 L 555.300781 168.085938 "></path><path style=" stroke:none;fill-rule:nonzero;fill:rgb(13.699341%,12.199402%,12.5%);fill-opacity:1;" d="M 577.820313 118.183594 C 577.820313 116.828125 578.335938 115.660156 579.351563 114.683594 C 580.367188 113.703125 581.574219 113.214844 582.976563 113.214844 C 584.445313 113.214844 585.652344 113.691406 586.617188 114.632813 C 587.582031 115.574219 588.070313 116.753906 588.070313 118.183594 C 588.070313 119.601563 587.582031 120.792969 586.605469 121.757813 C 585.628906 122.722656 584.417969 123.214844 582.976563 123.214844 C 581.574219 123.214844 580.367188 122.710938 579.351563 121.71875 C 578.335938 120.730469 577.820313 119.550781 577.820313 118.183594 Z M 578.914063 168.085938 L 578.914063 133.246094 L 587.09375 133.246094 L 587.09375 168.085938 L 578.914063 168.085938 "></path><path style=" stroke:none;fill-rule:nonzero;fill:rgb(13.699341%,12.199402%,12.5%);fill-opacity:1;" d="M 628.597656 150.773438 C 628.597656 147.535156 627.53125 144.800781 625.394531 142.554688 C 623.261719 140.3125 620.648438 139.195313 617.5625 139.195313 C 614.488281 139.195313 611.890625 140.3125 609.742188 142.554688 C 607.597656 144.800781 606.515625 147.535156 606.515625 150.773438 C 606.515625 154.007813 607.597656 156.746094 609.742188 158.988281 C 611.890625 161.234375 614.488281 162.351563 617.5625 162.351563 C 620.625 162.351563 623.222656 161.234375 625.371094 158.988281 C 627.519531 156.746094 628.597656 154.007813 628.597656 150.773438 Z M 597.886719 150.699219 C 597.886719 148.152344 598.386719 145.742188 599.378906 143.484375 C 600.367188 141.214844 601.796875 139.195313 603.648438 137.4375 C 605.484375 135.695313 607.597656 134.363281 609.988281 133.425781 C 612.367188 132.496094 614.863281 132.03125 617.484375 132.03125 C 620.175781 132.03125 622.695313 132.496094 625.074219 133.425781 C 627.453125 134.363281 629.574219 135.730469 631.464844 137.539063 C 633.34375 139.332031 634.785156 141.351563 635.761719 143.609375 C 636.738281 145.855469 637.226563 148.226563 637.226563 150.699219 C 637.226563 153.269531 636.738281 155.691406 635.773438 157.9375 C 634.808594 160.195313 633.394531 162.1875 631.542969 163.933594 C 629.574219 165.765625 627.402344 167.15625 625.023438 168.097656 C 622.628906 169.039063 620.121094 169.515625 617.484375 169.515625 C 614.886719 169.515625 612.40625 169.039063 610.011719 168.097656 C 607.632813 167.15625 605.511719 165.789063 603.648438 164.007813 C 601.769531 162.1875 600.328125 160.15625 599.351563 157.898438 C 598.375 155.652344 597.886719 153.246094 597.886719 150.699219 "></path><path style=" stroke:none;fill-rule:nonzero;fill:rgb(13.699341%,12.199402%,12.5%);fill-opacity:1;" d="M 647.648438 168.085938 L 647.648438 133.246094 L 655.339844 133.246094 L 655.339844 138.945313 C 656.972656 136.535156 658.886719 134.789063 661.101563 133.6875 C 663.3125 132.585938 666 132.03125 669.164063 132.03125 C 671.824219 132.03125 674.089844 132.445313 675.96875 133.261719 C 677.832031 134.089844 679.296875 135.304688 680.351563 136.925781 C 680.984375 137.878906 681.433594 138.992188 681.714844 140.261719 C 681.984375 141.539063 682.128906 143.773438 682.128906 146.945313 L 682.128906 168.085938 L 673.871094 168.085938 L 673.871094 150.183594 C 673.871094 145.605469 673.304688 142.554688 672.160156 141.050781 C 671.015625 139.546875 668.984375 138.792969 666.078125 138.792969 C 664.160156 138.792969 662.464844 139.132813 660.972656 139.820313 C 659.480469 140.511719 658.296875 141.476563 657.445313 142.71875 C 656.84375 143.558594 656.417969 144.625 656.1875 145.945313 C 655.941406 147.246094 655.828125 149.34375 655.828125 152.203125 L 655.828125 168.085938 L 647.648438 168.085938 "></path><path style=" stroke:none;fill-rule:nonzero;fill:rgb(13.699341%,12.199402%,12.5%);fill-opacity:1;" d="M 728.378906 168.085938 L 720.199219 168.085938 L 720.199219 163.570313 C 718.746094 165.574219 717.035156 167.070313 715.09375 168.046875 C 713.148438 169.027344 710.925781 169.515625 708.402344 169.515625 C 703.363281 169.515625 699.390625 167.835938 696.480469 164.460938 C 693.589844 161.097656 692.136719 156.480469 692.136719 150.621094 C 692.136719 145.066406 693.613281 140.574219 696.585938 137.160156 C 699.542969 133.738281 703.414063 132.03125 708.1875 132.03125 C 711.09375 132.03125 713.589844 132.621094 715.65625 133.8125 C 717.730469 135.003906 719.246094 136.710938 720.199219 138.929688 L 720.199219 133.246094 L 728.378906 133.246094 Z M 720.429688 150.546875 C 720.429688 146.945313 719.566406 144.148438 717.84375 142.128906 C 716.121094 140.121094 713.714844 139.117188 710.628906 139.117188 C 707.542969 139.117188 705.113281 140.160156 703.335938 142.230469 C 701.574219 144.300781 700.6875 147.171875 700.6875 150.847656 C 700.6875 154.550781 701.535156 157.398438 703.246094 159.414063 C 704.957031 161.421875 707.363281 162.425781 710.476563 162.425781 C 713.421875 162.425781 715.8125 161.335938 717.652344 159.152344 C 719.503906 156.96875 720.429688 154.109375 720.429688 150.546875 "></path><path style=" stroke:none;fill-rule:nonzero;fill:rgb(13.699341%,12.199402%,12.5%);fill-opacity:1;" d="M 741.832031 168.085938 L 741.832031 111.121094 L 750.011719 111.121094 L 750.011719 168.085938 L 741.832031 168.085938 "></path><path style="fill:none;stroke-width:10.0006;stroke-linecap:butt;stroke-linejoin:miter;stroke:rgb(13.699341%,12.199402%,12.5%);stroke-opacity:1;stroke-miterlimit:2.61313;" d="M 2893.476563 202.070313 L 2893.476563 740.078125 L 2983.125 740.078125 L 2983.125 541.640625 L 3254.492188 541.640625 L 3254.492188 740.078125 L 3344.140625 740.078125 L 3344.140625 202.070313 L 3254.492188 202.070313 L 3254.492188 463.359375 L 2983.125 463.359375 L 2983.125 202.070313 Z M 2893.476563 202.070313 " transform="matrix(0.1,0,0,-0.1,0,260)"></path><path style="fill:none;stroke-width:10.0006;stroke-linecap:butt;stroke-linejoin:miter;stroke:rgb(13.699341%,12.199402%,12.5%);stroke-opacity:1;stroke-miterlimit:2.61313;" d="M 3755.15625 375.15625 C 3755.15625 407.539063 3744.492188 434.882813 3723.125 457.34375 C 3701.796875 479.804688 3675.664063 490.9375 3644.804688 490.9375 C 3614.0625 490.9375 3588.085938 479.804688 3566.601563 457.34375 C 3545.15625 434.882813 3534.335938 407.539063 3534.335938 375.15625 C 3534.335938 342.8125 3545.15625 315.46875 3566.601563 293.007813 C 3588.085938 270.546875 3614.0625 259.375 3644.804688 259.375 C 3675.429688 259.375 3701.40625 270.546875 3722.890625 293.007813 C 3744.375 315.46875 3755.15625 342.8125 3755.15625 375.15625 Z M 3448.046875 375.9375 C 3448.046875 401.40625 3453.046875 425.46875 3462.96875 448.046875 C 3472.851563 470.78125 3487.148438 490.9375 3505.664063 508.515625 C 3524.0625 525.9375 3545.15625 539.257813 3569.0625 548.671875 C 3592.851563 557.929688 3617.8125 562.578125 3644.023438 562.578125 C 3670.9375 562.578125 3696.132813 557.929688 3719.921875 548.671875 C 3743.710938 539.257813 3764.921875 525.585938 3783.828125 507.5 C 3802.617188 489.570313 3817.03125 469.375 3826.796875 446.796875 C 3836.5625 424.335938 3841.445313 400.625 3841.445313 375.9375 C 3841.445313 350.195313 3836.5625 325.976563 3826.914063 303.554688 C 3817.304688 280.976563 3803.125 261.015625 3784.609375 243.59375 C 3764.921875 225.273438 3743.203125 211.328125 3719.414063 201.914063 C 3695.507813 192.539063 3670.390625 187.773438 3644.023438 187.773438 C 3618.085938 187.773438 3593.242188 192.539063 3569.335938 201.914063 C 3545.546875 211.328125 3524.296875 225 3505.664063 242.8125 C 3486.875 261.015625 3472.460938 281.328125 3462.695313 303.90625 C 3452.929688 326.367188 3448.046875 350.46875 3448.046875 375.9375 Z M 3448.046875 375.9375 " transform="matrix(0.1,0,0,-0.1,0,260)"></path><path style="fill:none;stroke-width:10.0006;stroke-linecap:butt;stroke-linejoin:miter;stroke:rgb(13.699341%,12.199402%,12.5%);stroke-opacity:1;stroke-miterlimit:2.61313;" d="M 3897.539063 265.273438 L 3965.3125 301.289063 C 3970.3125 283.867188 3979.609375 270.664063 3993.203125 261.523438 C 4006.835938 252.5 4024.21875 247.96875 4045.703125 247.96875 C 4063.945313 247.96875 4078.359375 252.109375 4088.789063 260.273438 C 4099.21875 268.554688 4104.453125 279.6875 4104.453125 293.867188 C 4104.453125 312.8125 4085.9375 329.023438 4048.789063 342.421875 C 4036.171875 346.835938 4026.523438 350.46875 4019.726563 353.476563 C 3981.523438 368.90625 3954.765625 384.570313 3939.609375 400.507813 C 3924.414063 416.445313 3916.835938 435.78125 3916.835938 458.59375 C 3916.835938 489.6875 3929.296875 514.921875 3954.375 534.375 C 3979.335938 553.671875 4012.382813 563.359375 4053.554688 563.359375 C 4081.171875 563.359375 4104.84375 558.320313 4124.648438 548.398438 C 4144.335938 538.515625 4158.75 524.453125 4167.734375 506.015625 L 4109.726563 466.992188 C 4105.507813 478.046875 4098.046875 486.835938 4087.34375 493.359375 C 4076.679688 499.84375 4064.335938 503.125 4050.195313 503.125 C 4034.648438 503.125 4022.148438 499.492188 4012.773438 492.226563 C 4003.398438 485.078125 3998.632813 475.390625 3998.632813 463.359375 C 3998.632813 445.3125 4019.726563 428.75 4061.914063 413.671875 C 4075.273438 409.0625 4085.546875 405.273438 4092.773438 402.265625 C 4125.703125 389.609375 4149.21875 375.15625 4163.359375 359.101563 C 4177.65625 343.046875 4184.726563 323.125 4184.726563 299.023438 C 4184.726563 264.257813 4171.71875 237.070313 4145.898438 217.34375 C 4120.039063 197.65625 4084.414063 187.773438 4038.867188 187.773438 C 4003.90625 187.773438 3974.960938 194.140625 3951.796875 206.835938 C 3928.671875 219.609375 3910.664063 239.0625 3897.539063 265.273438 Z M 3897.539063 265.273438 " transform="matrix(0.1,0,0,-0.1,0,260)"></path><path style="fill:none;stroke-width:10.0006;stroke-linecap:butt;stroke-linejoin:miter;stroke:rgb(13.699341%,12.199402%,12.5%);stroke-opacity:1;stroke-miterlimit:2.61313;" d="M 4356.796875 377.421875 C 4356.796875 341.289063 4366.054688 312.578125 4384.570313 290.976563 C 4402.96875 269.414063 4427.265625 258.632813 4457.382813 258.632813 C 4488.359375 258.632813 4512.304688 268.671875 4529.140625 288.75 C 4546.09375 308.945313 4554.609375 337.421875 4554.609375 374.414063 C 4554.609375 411.171875 4545.742188 439.882813 4528.125 460.585938 C 4510.351563 481.289063 4486.054688 491.71875 4455.195313 491.71875 C 4424.335938 491.71875 4400.15625 481.679688 4382.890625 461.601563 C 4365.546875 441.40625 4356.796875 413.4375 4356.796875 377.421875 Z M 4277.695313 38.085938 L 4277.695313 550.429688 L 4359.492188 550.429688 L 4359.492188 493.59375 C 4369.023438 515.546875 4384.335938 532.617188 4405.273438 544.648438 C 4426.25 556.5625 4451.328125 562.578125 4480.390625 562.578125 C 4527.851563 562.578125 4566.289063 545.507813 4595.898438 511.289063 C 4625.351563 477.148438 4640.117188 432.265625 4640.117188 376.679688 C 4640.117188 318.085938 4625.585938 271.914063 4596.640625 238.320313 C 4567.578125 204.570313 4527.851563 187.773438 4477.421875 187.773438 C 4452.226563 187.773438 4429.960938 192.65625 4410.546875 202.421875 C 4391.132813 212.226563 4374.023438 227.148438 4359.492188 247.226563 L 4359.492188 38.085938 Z M 4277.695313 38.085938 " transform="matrix(0.1,0,0,-0.1,0,260)"></path><path style="fill:none;stroke-width:10.0006;stroke-linecap:butt;stroke-linejoin:miter;stroke:rgb(13.699341%,12.199402%,12.5%);stroke-opacity:1;stroke-miterlimit:2.61313;" d="M 4730.273438 701.09375 C 4730.273438 714.648438 4735.429688 726.289063 4745.585938 736.09375 C 4755.742188 745.859375 4767.8125 750.742188 4781.835938 750.742188 C 4796.523438 750.742188 4808.59375 745.976563 4818.242188 736.5625 C 4827.890625 727.1875 4832.773438 715.390625 4832.773438 701.09375 C 4832.773438 686.914063 4827.890625 675 4818.125 665.3125 C 4808.359375 655.664063 4796.25 650.78125 4781.835938 650.78125 C 4767.8125 650.78125 4755.742188 655.78125 4745.585938 665.703125 C 4735.429688 675.625 4730.273438 687.421875 4730.273438 701.09375 Z M 4741.210938 202.070313 L 4741.210938 550.429688 L 4823.007813 550.429688 L 4823.007813 202.070313 Z M 4741.210938 202.070313 " transform="matrix(0.1,0,0,-0.1,0,260)"></path><path style="fill:none;stroke-width:10.0006;stroke-linecap:butt;stroke-linejoin:miter;stroke:rgb(13.699341%,12.199402%,12.5%);stroke-opacity:1;stroke-miterlimit:2.61313;" d="M 4969.492188 202.070313 L 4969.492188 480.546875 L 4906.992188 480.546875 L 4906.992188 550.429688 L 4969.492188 550.429688 L 4969.492188 682.382813 L 5051.289063 682.382813 L 5051.289063 550.429688 L 5113.789063 550.429688 L 5113.789063 480.546875 L 5051.289063 480.546875 L 5051.289063 202.070313 Z M 4969.492188 202.070313 " transform="matrix(0.1,0,0,-0.1,0,260)"></path><path style="fill:none;stroke-width:10.0006;stroke-linecap:butt;stroke-linejoin:miter;stroke:rgb(13.699341%,12.199402%,12.5%);stroke-opacity:1;stroke-miterlimit:2.61313;" d="M 5530.742188 202.070313 L 5448.945313 202.070313 L 5448.945313 247.226563 C 5434.414063 227.148438 5417.304688 212.226563 5397.890625 202.421875 C 5378.476563 192.65625 5356.210938 187.773438 5331.015625 187.773438 C 5280.585938 187.773438 5240.859375 204.570313 5211.796875 238.320313 C 5182.851563 271.914063 5168.320313 318.085938 5168.320313 376.679688 C 5168.320313 432.265625 5183.085938 477.148438 5212.8125 511.289063 C 5242.382813 545.507813 5281.09375 562.578125 5328.828125 562.578125 C 5357.890625 562.578125 5382.851563 556.679688 5403.554688 544.765625 C 5424.257813 532.851563 5439.414063 515.78125 5448.945313 493.59375 L 5448.945313 550.429688 L 5530.742188 550.429688 Z M 5451.25 377.421875 C 5451.25 413.4375 5442.65625 441.40625 5425.390625 461.601563 C 5408.164063 481.679688 5384.140625 491.71875 5353.242188 491.71875 C 5322.382813 491.71875 5298.085938 481.289063 5280.3125 460.585938 C 5262.695313 439.882813 5253.828125 411.171875 5253.828125 374.414063 C 5253.828125 337.421875 5262.34375 308.945313 5279.414063 288.75 C 5296.523438 268.671875 5320.585938 258.632813 5351.71875 258.632813 C 5381.171875 258.632813 5405.078125 269.53125 5423.476563 291.367188 C 5441.992188 313.203125 5451.25 341.796875 5451.25 377.421875 Z M 5451.25 377.421875 " transform="matrix(0.1,0,0,-0.1,0,260)"></path><path style="fill:none;stroke-width:10.0006;stroke-linecap:butt;stroke-linejoin:miter;stroke:rgb(13.699341%,12.199402%,12.5%);stroke-opacity:1;stroke-miterlimit:2.61313;" d="M 5658.164063 202.070313 L 5658.164063 771.71875 L 5739.960938 771.71875 L 5739.960938 202.070313 Z M 5658.164063 202.070313 " transform="matrix(0.1,0,0,-0.1,0,260)"></path><path style="fill:none;stroke-width:10.0006;stroke-linecap:butt;stroke-linejoin:miter;stroke:rgb(13.699341%,12.199402%,12.5%);stroke-opacity:1;stroke-miterlimit:2.61313;" d="M 5826.132813 265.273438 L 5893.90625 301.289063 C 5898.945313 283.867188 5908.203125 270.664063 5921.835938 261.523438 C 5935.46875 252.5 5952.8125 247.96875 5974.296875 247.96875 C 5992.578125 247.96875 6006.953125 252.109375 6017.382813 260.273438 C 6027.8125 268.554688 6033.085938 279.6875 6033.085938 293.867188 C 6033.085938 312.8125 6014.570313 329.023438 5977.382813 342.421875 C 5964.804688 346.835938 5955.15625 350.46875 5948.320313 353.476563 C 5910.117188 368.90625 5883.398438 384.570313 5868.203125 400.507813 C 5853.007813 416.445313 5845.429688 435.78125 5845.429688 458.59375 C 5845.429688 489.6875 5857.890625 514.921875 5883.007813 534.375 C 5907.929688 553.671875 5941.015625 563.359375 5982.148438 563.359375 C 6009.804688 563.359375 6033.476563 558.320313 6053.28125 548.398438 C 6072.96875 538.515625 6087.34375 524.453125 6096.367188 506.015625 L 6038.359375 466.992188 C 6034.101563 478.046875 6026.640625 486.835938 6015.976563 493.359375 C 6005.3125 499.84375 5992.96875 503.125 5978.789063 503.125 C 5963.242188 503.125 5950.78125 499.492188 5941.367188 492.226563 C 5931.992188 485.078125 5927.226563 475.390625 5927.226563 463.359375 C 5927.226563 445.3125 5948.320313 428.75 5990.507813 413.671875 C 6003.867188 409.0625 6014.179688 405.273438 6021.367188 402.265625 C 6054.296875 389.609375 6077.851563 375.15625 6091.992188 359.101563 C 6106.25 343.046875 6113.359375 323.125 6113.359375 299.023438 C 6113.359375 264.257813 6100.351563 237.070313 6074.492188 217.34375 C 6048.632813 197.65625 6013.007813 187.773438 5967.5 187.773438 C 5932.5 187.773438 5903.554688 194.140625 5880.429688 206.835938 C 5857.265625 219.609375 5839.257813 239.0625 5826.132813 265.273438 Z M 5826.132813 265.273438 " transform="matrix(0.1,0,0,-0.1,0,260)"></path><path style="fill:none;stroke-width:10.0006;stroke-linecap:butt;stroke-linejoin:miter;stroke:rgb(13.699341%,12.199402%,12.5%);stroke-opacity:1;stroke-miterlimit:2.61313;" d="M 6446.054688 202.070313 L 6446.054688 740.078125 L 6535.703125 740.078125 L 6535.703125 280.351563 L 6736.210938 280.351563 L 6736.210938 202.070313 Z M 6446.054688 202.070313 " transform="matrix(0.1,0,0,-0.1,0,260)"></path><path style="fill:none;stroke-width:10.0006;stroke-linecap:butt;stroke-linejoin:miter;stroke:rgb(13.699341%,12.199402%,12.5%);stroke-opacity:1;stroke-miterlimit:2.61313;" d="M 6831.875 202.070313 L 6831.875 480.546875 L 6769.375 480.546875 L 6769.375 550.429688 L 6831.875 550.429688 L 6831.875 682.382813 L 6913.671875 682.382813 L 6913.671875 550.429688 L 6976.171875 550.429688 L 6976.171875 480.546875 L 6913.671875 480.546875 L 6913.671875 202.070313 Z M 6831.875 202.070313 " transform="matrix(0.1,0,0,-0.1,0,260)"></path><path style="fill:none;stroke-width:10.0006;stroke-linecap:butt;stroke-linejoin:miter;stroke:rgb(13.699341%,12.199402%,12.5%);stroke-opacity:1;stroke-miterlimit:2.61313;" d="M 7313.632813 377.421875 C 7313.632813 413.4375 7305.039063 441.40625 7287.773438 461.601563 C 7270.546875 481.679688 7246.523438 491.71875 7215.625 491.71875 C 7184.765625 491.71875 7160.46875 481.289063 7142.734375 460.585938 C 7125.117188 439.882813 7116.210938 411.171875 7116.210938 374.414063 C 7116.210938 337.421875 7124.726563 308.945313 7141.835938 288.75 C 7158.945313 268.671875 7182.96875 258.632813 7214.101563 258.632813 C 7243.828125 258.632813 7267.734375 269.414063 7286.132813 291.132813 C 7304.375 312.8125 7313.632813 341.5625 7313.632813 377.421875 Z M 7311.328125 771.71875 L 7393.125 771.71875 L 7393.125 202.070313 L 7311.328125 202.070313 L 7311.328125 247.226563 C 7296.796875 227.148438 7279.6875 212.226563 7260.273438 202.421875 C 7240.859375 192.65625 7218.59375 187.773438 7193.398438 187.773438 C 7142.96875 187.773438 7103.242188 204.570313 7074.179688 238.320313 C 7045.234375 271.914063 7030.703125 318.085938 7030.703125 376.679688 C 7030.703125 432.265625 7045.507813 477.148438 7075.195313 511.289063 C 7104.765625 545.507813 7143.476563 562.578125 7191.210938 562.578125 C 7220.273438 562.578125 7245.234375 556.679688 7265.9375 544.765625 C 7286.640625 532.851563 7301.835938 515.78125 7311.328125 493.59375 Z M 7311.328125 771.71875 " transform="matrix(0.1,0,0,-0.1,0,260)"></path><path style="fill:none;stroke-width:10.0006;stroke-linecap:butt;stroke-linejoin:miter;stroke:rgb(13.699341%,12.199402%,12.5%);stroke-opacity:1;stroke-miterlimit:2.61313;" d="M 7527.265625 242.8125 C 7527.265625 256.367188 7532.03125 267.773438 7541.523438 277.460938 C 7551.171875 286.992188 7562.890625 291.757813 7576.640625 291.757813 C 7590.390625 291.757813 7602.109375 286.992188 7611.757813 277.460938 C 7621.289063 267.773438 7626.054688 256.367188 7626.054688 242.8125 C 7626.054688 229.648438 7621.289063 218.359375 7611.757813 209.21875 C 7602.109375 200.039063 7590.390625 195.390625 7576.640625 195.390625 C 7562.890625 195.390625 7551.171875 200.039063 7541.523438 209.21875 C 7532.03125 218.359375 7527.265625 229.648438 7527.265625 242.8125 Z M 7527.265625 242.8125 " transform="matrix(0.1,0,0,-0.1,0,260)"></path><path style=" stroke:none;fill-rule:nonzero;fill:rgb(13.699341%,12.199402%,12.5%);fill-opacity:1;" d="M 289.347656 239.792969 L 289.347656 185.992188 L 298.3125 185.992188 L 298.3125 205.835938 L 325.449219 205.835938 L 325.449219 185.992188 L 334.414063 185.992188 L 334.414063 239.792969 L 325.449219 239.792969 L 325.449219 213.664063 L 298.3125 213.664063 L 298.3125 239.792969 L 289.347656 239.792969 "></path><path style=" stroke:none;fill-rule:nonzero;fill:rgb(13.699341%,12.199402%,12.5%);fill-opacity:1;" d="M 375.515625 222.484375 C 375.515625 219.246094 374.449219 216.511719 372.3125 214.265625 C 370.179688 212.019531 367.566406 210.90625 364.480469 210.90625 C 361.40625 210.90625 358.808594 212.019531 356.660156 214.265625 C 354.515625 216.511719 353.433594 219.246094 353.433594 222.484375 C 353.433594 225.71875 354.515625 228.453125 356.660156 230.699219 C 358.808594 232.945313 361.40625 234.0625 364.480469 234.0625 C 367.542969 234.0625 370.140625 232.945313 372.289063 230.699219 C 374.4375 228.453125 375.515625 225.71875 375.515625 222.484375 Z M 344.804688 222.40625 C 344.804688 219.859375 345.304688 217.453125 346.296875 215.195313 C 347.285156 212.921875 348.714844 210.90625 350.566406 209.148438 C 352.40625 207.40625 354.515625 206.074219 356.90625 205.132813 C 359.285156 204.207031 361.78125 203.742188 364.402344 203.742188 C 367.09375 203.742188 369.613281 204.207031 371.992188 205.132813 C 374.371094 206.074219 376.492188 207.441406 378.382813 209.25 C 380.261719 211.042969 381.703125 213.0625 382.679688 215.320313 C 383.65625 217.566406 384.144531 219.9375 384.144531 222.40625 C 384.144531 224.980469 383.65625 227.402344 382.691406 229.644531 C 381.730469 231.902344 380.3125 233.898438 378.460938 235.640625 C 376.492188 237.472656 374.320313 238.867188 371.941406 239.808594 C 369.550781 240.746094 367.039063 241.222656 364.402344 241.222656 C 361.808594 241.222656 359.324219 240.746094 356.933594 239.808594 C 354.554688 238.867188 352.429688 237.5 350.566406 235.71875 C 348.6875 233.898438 347.246094 231.867188 346.269531 229.609375 C 345.292969 227.363281 344.804688 224.953125 344.804688 222.40625 "></path><path style=" stroke:none;fill-rule:nonzero;fill:rgb(13.699341%,12.199402%,12.5%);fill-opacity:1;" d="M 389.753906 233.472656 L 396.53125 229.871094 C 397.03125 231.613281 397.960938 232.933594 399.320313 233.847656 C 400.683594 234.75 402.421875 235.203125 404.570313 235.203125 C 406.394531 235.203125 407.835938 234.789063 408.878906 233.972656 C 409.921875 233.144531 410.445313 232.03125 410.445313 230.613281 C 410.445313 228.71875 408.59375 227.097656 404.878906 225.757813 C 403.617188 225.316406 402.652344 224.953125 401.972656 224.652344 C 398.152344 223.109375 395.476563 221.542969 393.960938 219.949219 C 392.441406 218.355469 391.683594 216.421875 391.683594 214.140625 C 391.683594 211.03125 392.929688 208.507813 395.4375 206.5625 C 397.933594 204.632813 401.238281 203.664063 405.355469 203.664063 C 408.117188 203.664063 410.484375 204.167969 412.464844 205.160156 C 414.433594 206.148438 415.875 207.554688 416.773438 209.398438 L 410.972656 213.300781 C 410.550781 212.195313 409.804688 211.316406 408.734375 210.664063 C 407.667969 210.015625 406.433594 209.6875 405.019531 209.6875 C 403.464844 209.6875 402.214844 210.050781 401.277344 210.777344 C 400.339844 211.492188 399.863281 212.460938 399.863281 213.664063 C 399.863281 215.46875 401.972656 217.125 406.191406 218.632813 C 407.527344 219.09375 408.554688 219.472656 409.277344 219.773438 C 412.570313 221.039063 414.921875 222.484375 416.335938 224.089844 C 417.765625 225.695313 418.472656 227.6875 418.472656 230.097656 C 418.472656 233.574219 417.171875 236.292969 414.589844 238.265625 C 412.003906 240.234375 408.441406 241.222656 403.886719 241.222656 C 400.390625 241.222656 397.496094 240.585938 395.179688 239.316406 C 392.867188 238.039063 391.066406 236.09375 389.753906 233.472656 "></path><path style=" stroke:none;fill-rule:nonzero;fill:rgb(13.699341%,12.199402%,12.5%);fill-opacity:1;" d="M 435.679688 222.257813 C 435.679688 225.871094 436.605469 228.742188 438.457031 230.902344 C 440.296875 233.058594 442.726563 234.136719 445.738281 234.136719 C 448.835938 234.136719 451.230469 233.132813 452.914063 231.125 C 454.609375 229.105469 455.460938 226.257813 455.460938 222.558594 C 455.460938 218.882813 454.574219 216.011719 452.8125 213.941406 C 451.035156 211.871094 448.605469 210.828125 445.519531 210.828125 C 442.433594 210.828125 440.015625 211.832031 438.289063 213.839844 C 436.554688 215.859375 435.679688 218.65625 435.679688 222.257813 Z M 427.769531 256.191406 L 427.769531 204.957031 L 435.949219 204.957031 L 435.949219 210.640625 C 436.902344 208.445313 438.433594 206.738281 440.527344 205.535156 C 442.625 204.34375 445.132813 203.742188 448.039063 203.742188 C 452.785156 203.742188 456.628906 205.449219 459.589844 208.871094 C 462.535156 212.285156 464.011719 216.773438 464.011719 222.332031 C 464.011719 228.191406 462.558594 232.808594 459.664063 236.167969 C 456.757813 239.542969 452.785156 241.222656 447.742188 241.222656 C 445.222656 241.222656 442.996094 240.734375 441.054688 239.757813 C 439.113281 238.777344 437.402344 237.285156 435.949219 235.277344 L 435.949219 256.191406 L 427.769531 256.191406 "></path><path style=" stroke:none;fill-rule:nonzero;fill:rgb(13.699341%,12.199402%,12.5%);fill-opacity:1;" d="M 473.027344 189.890625 C 473.027344 188.535156 473.542969 187.371094 474.558594 186.390625 C 475.574219 185.414063 476.78125 184.925781 478.183594 184.925781 C 479.652344 184.925781 480.859375 185.402344 481.824219 186.34375 C 482.789063 187.28125 483.277344 188.460938 483.277344 189.890625 C 483.277344 191.308594 482.789063 192.5 481.8125 193.46875 C 480.835938 194.433594 479.625 194.921875 478.183594 194.921875 C 476.78125 194.921875 475.574219 194.421875 474.558594 193.429688 C 473.542969 192.4375 473.027344 191.257813 473.027344 189.890625 Z M 474.121094 239.792969 L 474.121094 204.957031 L 482.300781 204.957031 L 482.300781 239.792969 L 474.121094 239.792969 "></path><path style=" stroke:none;fill-rule:nonzero;fill:rgb(13.699341%,12.199402%,12.5%);fill-opacity:1;" d="M 496.949219 239.792969 L 496.949219 211.945313 L 490.699219 211.945313 L 490.699219 204.957031 L 496.949219 204.957031 L 496.949219 191.761719 L 505.128906 191.761719 L 505.128906 204.957031 L 511.378906 204.957031 L 511.378906 211.945313 L 505.128906 211.945313 L 505.128906 239.792969 L 496.949219 239.792969 "></path><path style=" stroke:none;fill-rule:nonzero;fill:rgb(13.699341%,12.199402%,12.5%);fill-opacity:1;" d="M 553.074219 239.792969 L 544.894531 239.792969 L 544.894531 235.277344 C 543.441406 237.285156 541.730469 238.777344 539.789063 239.757813 C 537.847656 240.734375 535.621094 241.222656 533.101563 241.222656 C 528.058594 241.222656 524.085938 239.542969 521.179688 236.167969 C 518.285156 232.808594 516.832031 228.191406 516.832031 222.332031 C 516.832031 216.773438 518.308594 212.285156 521.28125 208.871094 C 524.238281 205.449219 528.109375 203.742188 532.882813 203.742188 C 535.789063 203.742188 538.285156 204.332031 540.355469 205.523438 C 542.425781 206.714844 543.941406 208.421875 544.894531 210.640625 L 544.894531 204.957031 L 553.074219 204.957031 Z M 545.125 222.257813 C 545.125 218.65625 544.265625 215.859375 542.539063 213.839844 C 540.816406 211.832031 538.414063 210.828125 535.324219 210.828125 C 532.238281 210.828125 529.808594 211.871094 528.03125 213.941406 C 526.269531 216.011719 525.382813 218.882813 525.382813 222.558594 C 525.382813 226.257813 526.234375 229.105469 527.941406 231.125 C 529.652344 233.132813 532.058594 234.136719 535.171875 234.136719 C 538.117188 234.136719 540.507813 233.046875 542.347656 230.863281 C 544.199219 228.679688 545.125 225.820313 545.125 222.257813 "></path><path style=" stroke:none;fill-rule:nonzero;fill:rgb(13.699341%,12.199402%,12.5%);fill-opacity:1;" d="M 565.816406 239.792969 L 565.816406 182.828125 L 573.996094 182.828125 L 573.996094 239.792969 L 565.816406 239.792969 "></path><path style=" stroke:none;fill-rule:nonzero;fill:rgb(13.699341%,12.199402%,12.5%);fill-opacity:1;" d="M 582.613281 233.472656 L 589.390625 229.871094 C 589.894531 231.613281 590.820313 232.933594 592.183594 233.847656 C 593.546875 234.75 595.28125 235.203125 597.429688 235.203125 C 599.257813 235.203125 600.695313 234.789063 601.738281 233.972656 C 602.78125 233.144531 603.308594 232.03125 603.308594 230.613281 C 603.308594 228.71875 601.457031 227.097656 597.738281 225.757813 C 596.480469 225.316406 595.515625 224.953125 594.832031 224.652344 C 591.011719 223.109375 588.339844 221.542969 586.820313 219.949219 C 585.300781 218.355469 584.542969 216.421875 584.542969 214.140625 C 584.542969 211.03125 585.789063 208.507813 588.300781 206.5625 C 590.792969 204.632813 594.101563 203.664063 598.214844 203.664063 C 600.980469 203.664063 603.347656 204.167969 605.328125 205.160156 C 607.296875 206.148438 608.734375 207.554688 609.636719 209.398438 L 603.835938 213.300781 C 603.410156 212.195313 602.664063 211.316406 601.597656 210.664063 C 600.53125 210.015625 599.296875 209.6875 597.878906 209.6875 C 596.324219 209.6875 595.078125 210.050781 594.136719 210.777344 C 593.199219 211.492188 592.722656 212.460938 592.722656 213.664063 C 592.722656 215.46875 594.832031 217.125 599.050781 218.632813 C 600.386719 219.09375 601.417969 219.472656 602.136719 219.773438 C 605.429688 221.039063 607.785156 222.484375 609.199219 224.089844 C 610.625 225.695313 611.335938 227.6875 611.335938 230.097656 C 611.335938 233.574219 610.035156 236.292969 607.449219 238.265625 C 604.863281 240.234375 601.300781 241.222656 596.75 241.222656 C 593.25 241.222656 590.355469 240.585938 588.042969 239.316406 C 585.726563 238.039063 583.925781 236.09375 582.613281 233.472656 "></path><path style=" stroke:none;fill-rule:nonzero;fill:rgb(13.699341%,12.199402%,12.5%);fill-opacity:1;" d="M 644.605469 239.792969 L 644.605469 185.992188 L 653.570313 185.992188 L 653.570313 231.964844 L 673.621094 231.964844 L 673.621094 239.792969 L 644.605469 239.792969 "></path><path style=" stroke:none;fill-rule:nonzero;fill:rgb(13.699341%,12.199402%,12.5%);fill-opacity:1;" d="M 683.1875 239.792969 L 683.1875 211.945313 L 676.9375 211.945313 L 676.9375 204.957031 L 683.1875 204.957031 L 683.1875 191.761719 L 691.367188 191.761719 L 691.367188 204.957031 L 697.617188 204.957031 L 697.617188 211.945313 L 691.367188 211.945313 L 691.367188 239.792969 L 683.1875 239.792969 "></path><path style=" stroke:none;fill-rule:nonzero;fill:rgb(13.699341%,12.199402%,12.5%);fill-opacity:1;" d="M 731.363281 222.257813 C 731.363281 218.65625 730.503906 215.859375 728.777344 213.839844 C 727.054688 211.832031 724.652344 210.828125 721.5625 210.828125 C 718.476563 210.828125 716.046875 211.871094 714.273438 213.941406 C 712.511719 216.011719 711.621094 218.882813 711.621094 222.558594 C 711.621094 226.257813 712.472656 229.105469 714.183594 231.125 C 715.894531 233.132813 718.296875 234.136719 721.410156 234.136719 C 724.382813 234.136719 726.773438 233.058594 728.613281 230.886719 C 730.4375 228.71875 731.363281 225.84375 731.363281 222.257813 Z M 731.132813 182.828125 L 739.3125 182.828125 L 739.3125 239.792969 L 731.132813 239.792969 L 731.132813 235.277344 C 729.679688 237.285156 727.96875 238.777344 726.027344 239.757813 C 724.085938 240.734375 721.859375 241.222656 719.339844 241.222656 C 714.296875 241.222656 710.324219 239.542969 707.417969 236.167969 C 704.523438 232.808594 703.070313 228.191406 703.070313 222.332031 C 703.070313 216.773438 704.550781 212.285156 707.519531 208.871094 C 710.476563 205.449219 714.347656 203.742188 719.121094 203.742188 C 722.027344 203.742188 724.523438 204.332031 726.59375 205.523438 C 728.664063 206.714844 730.183594 208.421875 731.132813 210.640625 L 731.132813 182.828125 "></path><path style=" stroke:none;fill-rule:nonzero;fill:rgb(13.699341%,12.199402%,12.5%);fill-opacity:1;" d="M 752.726563 235.71875 C 752.726563 234.363281 753.203125 233.222656 754.152344 232.253906 C 755.117188 231.300781 756.289063 230.824219 757.664063 230.824219 C 759.039063 230.824219 760.210938 231.300781 761.175781 232.253906 C 762.128906 233.222656 762.605469 234.363281 762.605469 235.71875 C 762.605469 237.035156 762.128906 238.164063 761.175781 239.078125 C 760.210938 239.996094 759.039063 240.460938 757.664063 240.460938 C 756.289063 240.460938 755.117188 239.996094 754.152344 239.078125 C 753.203125 238.164063 752.726563 237.035156 752.726563 235.71875 "></path></g></svg>