<svg xmlns="http://www.w3.org/2000/svg" width="2299.406" height="1077.927" viewBox="0 0 2299.406 1077.927">
  <g id="IOTA_LOGO-_FOr_white_BG" data-name="IOTA LOGO- FOr white BG" transform="translate(-1.797 0.03)">
    <g id="Layer_1" data-name="Layer 1" transform="translate(0.026 -0.03)">
      <path id="Path_1" data-name="Path 1" d="M475.132,518.982l.64-7.041,4.88-7.041c1.76-2.64,5.52-3.04,7.361-6.241a13.121,13.121,0,0,0,3.84-.4,75.765,75.765,0,0,1,25.122-2.16H675.628a68.157,68.157,0,0,0,10,0,4.321,4.321,0,0,0,1.12-5.2,43.746,43.746,0,0,1-3.44-11.841s0-.8,0-.96c-2.24-1.44-2.08-4.24-3.36-6.321a32.586,32.586,0,0,1-2-5.76c-.8-2.24-1.76-4.48-2.48-6.721-3.2-9.681-7.121-19.122-10.241-28.882-.56-1.76,0-3.44-.88-5.04s-2.4-2.4-2.4-4.48c0-.8-1.04-1.68-1.52-2.64a7.993,7.993,0,0,1-.64-1.92c-1.12-4.32-3.12-8-4.24-12.641-.48-1.68-1.68-3.2-1.68-4.8a11.76,11.76,0,0,0-1.92-5.68c-1.44-3.04-2.4-6.4-3.76-9.441s-.72-6.321-3.2-8.641c0-5.28-4.16-9.361-4.8-14.561-2.32-2.32-1.2-6.16-3.6-8.481,0-2.88-2.16-5.12-1.76-8a3.36,3.36,0,0,0-.56-1.92,21.044,21.044,0,0,1-4.24-10.321c-2.56-2.56-1.68-6.721-4-9.361a16,16,0,0,0-2.08-6.881,32.009,32.009,0,0,1-2.64-8c-2.16-1.68-.96-4.88-2.56-6.56s-.72-4.88-2.4-6.8-.72-5.6-2.96-8c0-2.96-3.28-4.72-2.32-8-1.52-2-1.52-4.72-2.64-6.641s-1.36-5.36-2.72-8-.48-3.36-1.12-4.88-2-1.92-1.76-3.6c-2.32-2.32-1.76-5.921-3.52-8.481s-.72-5.6-2.96-7.6a19.366,19.366,0,0,0-2.32-8,27.853,27.853,0,0,0-2.48-6.561c-1.76-2.48-1.44-5.28-2.8-8a39.989,39.989,0,0,1-3.12-8.721,34.724,34.724,0,0,0-3.92-9.441c.88-3.36-2.88-5.52-2.48-8.8-2-2.56-1.84-5.92-3.12-8.721-.72-1.52-.48-3.36-1.12-4.96s-1.68-1.92-1.92-3.52-1.68-3.04-2.08-4.64a17.028,17.028,0,0,0-1.2-3.92,49.062,49.062,0,0,1-1.44-4.88,26.472,26.472,0,0,1-1.76-3.76c-.88-5.12-3.921-9.441-5.12-14.4-1.76-1.68-.88-4-1.6-6a4.881,4.881,0,0,0-1.84-4.48,6.561,6.561,0,0,0-6.561-2.08,4.481,4.481,0,0,0-4.16,0,8,8,0,0,0-9.041,6.32s-.72,0-.8.64c-5.76,16-12.081,32.483-18,48.8-3.76,10.4-7.44,20.882-11.521,31.283s-7.041,19.6-10.721,29.362c-2.16,5.84-4.56,11.6-6.481,17.521s-4.56,11.761-6.48,17.6c-4.08,12.241-9.281,24-13.041,36.323-1.44,4.64-3.84,8.881-4.96,13.761a111.23,111.23,0,0,1-5.04,12.561c-1.28,3.52-2,7.361-3.36,10.881-6.881,17.521-12.961,35.2-19.362,52.8-4.88,13.441-9.761,26.882-14.721,40-2.16,5.84-4.4,11.681-6.481,17.6s-4.48,11.681-6.561,17.521c-6,17.041-12.321,34-18.561,50.964-3.36,9.121-6.241,18.4-10.081,27.362s-5.76,18.641-10.4,27.282c-5.44,18.642-13.681,36.4-19.442,54.964-4.8,10.081-7.121,21.122-12,31.123-3.52,12.4-8.641,24-12.961,36.323a23.283,23.283,0,0,1-8.961,14.961,58.648,58.648,0,0,1-22.482,5.04H214.391a14.241,14.241,0,0,1-12.641-8,18.41,18.41,0,0,0-1.68-2.64,8.183,8.183,0,0,1,.4-3.12c.72-3.04-1.2-6.16.96-9.2s.96-5.44,3.12-7.521c0-2.08,1.92-2.96,2.16-4.56a12.881,12.881,0,0,1,1.6-5.92c-.48-2.96,2.24-5.04,2.32-8s3.04-4.8,2.48-8c1.68-2.16,2-5.04,3.76-7.2s0-4.96,2.08-6.8c-.56-2.96,2.24-5.04,2.32-8s3.04-4.8,2.4-8c1.84-2.08,2.08-5.04,3.84-7.2s0-4.88,2.08-6.8c-.64-3.04,2.24-5.04,2.32-8s3.04-4.72,2.4-8c1.84-2.08,2.08-4.96,3.76-7.2s0-4.88,2.16-6.8c-.72-3.04,2.16-4.96,2.24-8s2.32-4.8,2.64-8,2.56-4.72,3.6-7.281,0-3.44,1.12-4.88c1.44-2.8.96-6.241,3.2-8.641-.72-3.04,2.8-4.88,2.24-8,1.76-2.56,2.08-5.76,4.08-8s0-4.8,2.08-6.721c-.64-3.36,2.88-5.6,2.4-8.881,1.68-2.24,2-5.04,3.6-7.361s0-5.521,3.04-7.361c-.48-2.56,1.04-4.64,1.6-6.961v-2.08a22.966,22.966,0,0,0,2.4-6.8c.48-1.52,2-2.8,2-4.64,2.16-1.68,1.6-4.4,2.56-6.481s2.48-3.36,1.76-5.76a148.346,148.346,0,0,1,7.521-18.962c1.6-2.24,0-5.68,3.04-7.36,0-2.48,1.28-4.64,1.52-6.961s2-3.84,2.16-5.76a59.878,59.878,0,0,1,2-5.76c.4-2.32,2.64-3.44,2.64-5.52a12.48,12.48,0,0,1,1.76-5.841c-.8-3.04,2.4-4.96,2.24-8s3.04-4,2.24-6.8c1.44-2.24,2-5.04,3.52-7.361a8.4,8.4,0,0,0,1.04-2.8c.64-2.64,1.2-5.36,1.84-8,2.56-1.84,1.2-5.28,3.04-7.6s.64-5.6,3.12-7.521c0-2,1.68-3.04,2.16-4.56a26.969,26.969,0,0,1,2-6.881c-.72-3.04,2.4-4.88,2.24-8s2.96-4,2.24-6.8c1.6-2.24,2-5.04,3.6-7.361a6.4,6.4,0,0,0,.88-2.8,73.593,73.593,0,0,1,3.76-11.681,64,64,0,0,1,4.4-11.441c0-2,1.84-3.04,2.16-4.48a62.506,62.506,0,0,0,1.68-6.961c0-2.96,2.64-4.88,2.48-8s2.8-4.08,2.24-6.8c1.76-2.16,1.76-5.2,3.68-7.281s0-2.72.8-3.92a39.994,39.994,0,0,1,2.16-6.8c1.44-2.24.88-4.88,2.4-6.721s1.04-4.08,1.84-5.92a42.783,42.783,0,0,1,3.44-6.241c.96-1.36,0-2.8.8-3.92a33.039,33.039,0,0,1,2.16-6.881c1.44-2.16.88-4.88,2.4-6.721s.96-4.08,1.84-5.92,2.24-4.16,3.36-6.241,0-5.52,2.32-8c-.64-3.04,2.16-4.96,2.48-8a25.038,25.038,0,0,1,3.28-7.361c0-.64,1.12-1.36.96-1.76-1.04-3.2,2.16-4.88,2.56-8a92.87,92.87,0,0,1,6.32-19.362c1.92-1.44,1.44-3.68,2-5.6s2.8-3.2,2-5.6c1.84-2.64,1.52-5.92,3.04-8.721a65.548,65.548,0,0,1,2.96-8,9.522,9.522,0,0,0,2.24-5.44c0-2.72,2.08-4.4,2-6.961a16.559,16.559,0,0,1,2-5.76,20.562,20.562,0,0,0,2-5.76c0-2.4,1.76-3.76,2.48-5.68s2.32-3.76,2.16-5.6,2.08-4.32,2-6.961,1.44-3.76,1.84-5.76,2.64-4.72,2.72-8a12.162,12.162,0,0,1,3.12-6.241c1.92-2.32,0-5.76,2.64-8-.56-2.64,2.08-4.48,2-6.8s2.48-4.24,2.4-6.8a8,8,0,0,1,1.36-3.84,66.832,66.832,0,0,1,3.2-6.321c-.64-2.56,1.12-4.64,1.68-6.961A51.443,51.443,0,0,1,449.53,20.942a10.8,10.8,0,0,0,5.681-5.76,13.755,13.755,0,0,1,2.16-2.16,20,20,0,0,1,6-3.52c2-.48,3.36-2,5.36-2.56,5.6-1.44,11.121-3.44,16.8-4.64H595.542a33.142,33.142,0,0,0,6.32-.4c2.08-.4,6.4,0,9.521.64a99.368,99.368,0,0,1,22.4,5.04,28.8,28.8,0,0,1,14.241,13.281,52.562,52.562,0,0,1,7.52,21.842,25.04,25.04,0,0,0,2.56,8c4,8.561,6.4,17.681,9.521,26.482,1.76,4.88,4,9.6,5.6,14.641s2.96,9.2,4.8,13.681c3.28,8,6.081,16,8.721,24.642,2.08,6.321,4.88,12.321,6.721,18.722s4.4,12.4,6.641,18.562,5.52,14.321,8,21.682S713.152,202,715.072,208.8s4.48,12.321,6.721,18.562,5.361,14.321,8,21.6,4.88,12.321,6.64,18.722,4.48,12.4,6.721,18.561,5.44,14.321,8,21.6,4.88,12.321,6.72,18.642,4.4,12.4,6.641,18.642,5.52,14.241,8,21.522,4.88,13.041,6.96,19.682,4.72,13.041,7.041,19.522c5.361,14.721,10.8,29.442,16,44.244l5.041,18.562c2.24,6.16,4.64,12.321,6.88,18.562s5.361,14.321,8,21.6,4.8,12.321,6.641,18.642,4.48,12.481,6.72,18.642c2.64,7.521,5.2,15.121,8,22.642,4.72,12.321,8.641,24.882,13.361,37.2,2.72,7.121,5.52,14.321,8,21.682,1.2,4.4,3.76,8,4.64,12.721a93.1,93.1,0,0,0,4.08,11.761c1.6,4.24,3.2,8.481,4.72,12.721,2.64,7.521,5.28,15.041,8,22.562,1.28,3.6,2.8,7.121,4.08,10.721a29.2,29.2,0,0,0,3.76,9.441c.88,2.96,1.76,5.92,2.56,8.881-.56,1.2-.64,2.88,0,2.88a25.2,25.2,0,0,1-9.441,10.961H790.6c-.48,0-.96-1.12-1.6-1.2a31.361,31.361,0,0,1-13.441-4.88h-2l-1.92-1.92a10.321,10.321,0,0,0-4.4-8,125.927,125.927,0,0,1-6-13.921c.8-3.12-2.48-4.88-2.32-8s-2.88-4.08-2.16-6.8a32,32,0,0,1-2.8-7.6c-.96-2.16-.88-4.88-3.04-6.481,1.04-3.52-2.96-5.52-2.48-8.8a59.732,59.732,0,0,1-3.44-9.6,19.521,19.521,0,0,1-2.4-8.8,2.24,2.24,0,0,0-.56-1.92c-2.32-1.84-1.68-5.281-3.84-7.121.56-3.04-2.4-5.12-2.4-8s-3.2-4.8-2.24-8a12,12,0,0,1-2.48-8l-.4-3.2a29.681,29.681,0,0,0-11.521-.8H516.576c-7.441,0-14.8,0-22.162-.48h0a13.681,13.681,0,0,0-8.641-3.92,22.882,22.882,0,0,1-8.4-13.6c-3.44-2.64-.8-6.641-2.24-9.681Z" transform="translate(1400.411 12.421)" fill="#2e4050"/>
      <path id="Path_2" data-name="Path 2" d="M34.71,607.679a2.48,2.48,0,0,0,0-1.84c0-1.68,0-3.44,0-5.2a4.8,4.8,0,0,0-1.84-3.6,1.76,1.76,0,0,0,0-1.68V125.32a2.64,2.64,0,0,0,0-1.76,4.48,4.48,0,0,0,1.76-3.6v-7.281h0a4.24,4.24,0,0,0,1.92-3.44v-5.12a34.482,34.482,0,0,1,3.6-12.881c1.52-3.92,3.6-7.521,5.12-11.441a109.205,109.205,0,0,1,6-10.8,104.014,104.014,0,0,1,6.641-9.6,14.721,14.721,0,0,1,2.32-2.08,7.281,7.281,0,0,0,4.72-5.92c3.28-3.12,6.641-6.16,9.761-9.441a129.77,129.77,0,0,1,20-16.561,157.854,157.854,0,0,1,51.2-22.242,33.044,33.044,0,0,1,6.241-.64,16.641,16.641,0,0,0,7.361-2H534.911a10,10,0,0,1,3.04.88,16,16,0,0,1,.96,8.481q0,38.483,0,77.206v8.4H169.041a4.72,4.72,0,0,0-3.68,1.84c-3.2.96-6.561,1.76-9.681,2.88a48.642,48.642,0,0,0-7.361,3.68,19.684,19.684,0,0,0-4.08,3.12c-1.84,1.6-3.44,3.44-5.2,5.12a39.2,39.2,0,0,0-9.121,15.281,11.519,11.519,0,0,0,0,4.08,4.64,4.64,0,0,0-1.92,3.6V585.437a4.64,4.64,0,0,0,1.92,3.6,27.042,27.042,0,0,0,6.08,16.8,9.041,9.041,0,0,0,4.4,6.561,2.16,2.16,0,0,0,1.68,2,13.361,13.361,0,0,0,8.881,8.8,25.843,25.843,0,0,0,16,8h.96a4.72,4.72,0,0,0,3.68,1.84H609.317a28.8,28.8,0,0,0,5.28-.4c.96,0,1.68-1.12,2.56-1.68l10.4-4.16A27.2,27.2,0,0,0,637,620.64a20.4,20.4,0,0,1,3.28-2.4c1.04,0,2.32,0,2.96-.64a99.6,99.6,0,0,0,7.121-7.121c.56-.64,0-1.92.64-2.88l2-2.24a5.68,5.68,0,0,0,4.08-6.16,4,4,0,0,1,0-1.04c2.16-5.2,4.24-10.4,6.4-16a4.961,4.961,0,0,0,1.84-3.6c0-4.96,0-9.841,0-14.8V227.088a5.041,5.041,0,0,1,1.92-4.24c2.16,0,4.961-.4,8-.4h81.447a4.48,4.48,0,0,1,3.92,2.08,84.478,84.478,0,0,1,0,11.121V586.878a2.4,2.4,0,0,0,0,1.84,4.64,4.64,0,0,0-1.76,3.6,71.41,71.41,0,0,1-.4,9.281h0a4.321,4.321,0,0,0-1.92,3.36,13.668,13.668,0,0,1-.64,5.04c-.64,1.68-1.2.96-1.28,1.52a63.207,63.207,0,0,1-6.8,19.682c-2.88,6-5.76,12-8.881,17.841a124.178,124.178,0,0,1-8.961,14,203.544,203.544,0,0,1-29.682,31.283,98.973,98.973,0,0,1-17.6,12.8c-3.6,2.16-7.12,4.32-10.8,6.32-5.841,3.12-12.4,4.64-18,8a4.321,4.321,0,0,1-2,.48,29.365,29.365,0,0,0-11.921,3.44,24,24,0,0,1-6.16.96h-5.28a4.64,4.64,0,0,0-3.6,1.76H158.08a4.641,4.641,0,0,0-3.68-1.76h-5.2a37.685,37.685,0,0,1-11.281-1.84,136.014,136.014,0,0,1-24-9.121,185.83,185.83,0,0,1-19.122-12.4,6.4,6.4,0,0,1-1.2-1.68,5.76,5.76,0,0,0-6.08-4.24,121.929,121.929,0,0,1-18.961-19.041,6,6,0,0,0-4.32-6.081l-2.08-2.4a5.921,5.921,0,0,0-4.24-6.161A124.089,124.089,0,0,1,38.951,625.6a17.442,17.442,0,0,1-2.16-8.961v-5.2a4.64,4.64,0,0,0-2.08-3.76Z" transform="translate(229.902 3.81)" fill="#1e90ff"/>
      <path id="Path_3" data-name="Path 3" d="M53.137,420.713a4,4,0,0,1-1.92-3.44V62.924a41.283,41.283,0,0,1,1.92-16,10,10,0,0,0,0-3.12,19.282,19.282,0,0,1,5.2-9.441A45.6,45.6,0,0,1,72.5,22.84c5.84-.64,11.2-3.04,16.881-4.08H438.369c3.44.56,6.721,1.84,10.081,2.64a31.2,31.2,0,0,1,11.2,5.52,38.564,38.564,0,0,1,14.721,20.962,36.727,36.727,0,0,0,2.16,4.8,17.341,17.341,0,0,0,0,2.08V412.712a18.011,18.011,0,0,0-1.92,3.68,40,40,0,0,1-11.841,19.122,62.959,62.959,0,0,1-10.161,6.881,11.6,11.6,0,0,1-5.761,2.24H433.088l-352.429.08a14.081,14.081,0,0,1-10.8-4.32,6,6,0,0,0-6.16-4.24,8.96,8.96,0,0,1-4.08-4.16A24,24,0,0,0,53.137,420.713Z" transform="translate(357.487 131.572)" fill="#1e90ff"/>
      <path id="Path_4" data-name="Path 4" d="M97.218,2.32c3.36.96,6.721,1.76,10,2.8A10.481,10.481,0,0,1,110.9,7.2c2.56,2.4,4.88,5.04,7.521,7.441s1.12,5.44,3.68,7.2c0,5.6.72,11.281.72,16.881V698.857c0,2.4-.64,7.041-.96,10.561a108.894,108.894,0,0,1-8,12.081,23.282,23.282,0,0,0-2.8,1.44,23.441,23.441,0,0,1-13.921,4.24H26.572a23.363,23.363,0,0,1-11.041-3.04c-1.52-.88-2.8-2.24-4.8-1.76A27.762,27.762,0,0,1,3.05,713.5a19.519,19.519,0,0,1-1.2-3.84c0-6,0-11.921,0-17.921V21.682l.56-4.32L5.53,13.6A26.242,26.242,0,0,1,24.412,2.88l3.04-.56a4,4,0,0,0,1.04,0H97.218Z" transform="translate(12.742 16.482)" fill="#2e4050"/>
      <path id="Path_5" data-name="Path 5" d="M274.769,574.815a7.441,7.441,0,0,0-2.32,6l-8.321,8.4h0a98.806,98.806,0,0,1-16.8,1.12H187.162a102.327,102.327,0,0,1-17.841-1.12h0l-8-8.561h0a44.725,44.725,0,0,0-2.48-11.121,13.763,13.763,0,0,0,.64-3.04v-513a32.8,32.8,0,0,0-.64-11.521,32.885,32.885,0,0,0,2.08-11.441,18.4,18.4,0,0,1,8.8-7.6,14.481,14.481,0,0,1,3.76-1.04h86.727c2.32,1.36,4.72,2.72,7.041,4.24,3.92,2.64,5.28,7.2,8,10.8V559.854A104.289,104.289,0,0,0,274.769,574.815Z" transform="translate(1111.774 153.484)" fill="#2e4050"/>
      <path id="Path_6" data-name="Path 6" d="M139.17,110.369a16.561,16.561,0,0,1-6.32-8.561V15a16,16,0,0,1,6.881-8,34.323,34.323,0,0,1,14.321-4.64c3.52,0,6.961.4,10.481.4H640.891a93.21,93.21,0,0,0,10.561-.4,26.562,26.562,0,0,1,11.521,4.72,25.522,25.522,0,0,1,8.8,18.321,57.64,57.64,0,0,1,0,7.441V86.687c0,2.8.4,5.6.56,8.4l-4.16,11.2h0l-6.88,6.241-3.6,2.56a77.205,77.205,0,0,0-13.6,0H160.532a39.443,39.443,0,0,1-20.322-4.16S139.49,110.369,139.17,110.369Z" transform="translate(929.827 16.762)" fill="#2e4050"/>
      <path id="Path_7" data-name="Path 7" d="M110.087,154.543c-5.12-1.04-5.841-1.76-6.321-6.4a18,18,0,0,1,0-2.08V5.09a14.47,14.47,0,0,1,.72-2.32l5.2-2.8H250.418a25.521,25.521,0,0,1,8,8V145.582l-2.16,4.48a6.881,6.881,0,0,1-4.16,4Z" transform="translate(726.012 0.03)" fill="#b8bbbb"/>
      <path id="Path_8" data-name="Path 8" d="M333.968,212.949a5.788,5.788,0,0,0,.48,2.96c8.8,12.4,16.961,25.122,25.2,37.843a4.8,4.8,0,0,0,1.52,1.28,14.642,14.642,0,0,0,4.56,6.64v2l11.6,17.041a6.566,6.566,0,0,0,1.52,1.44,8,8,0,0,0,5.92,0c.48-.4,1.44-.8,1.44-1.28,0-3.52.4-7.041.4-10.481V108.78l2.08-2.24a39.121,39.121,0,0,0,11.361-1.76c3.041.64,6,1.52,9.041,1.92s2.96,1.76,4.56,2.24a73.925,73.925,0,0,1,1.2,17.841q0,93.728,0,187.3V323.6a24,24,0,0,0,.96,4,4.24,4.24,0,0,0-1.92,3.44,8,8,0,0,1-4.24,6.561,129.3,129.3,0,0,0-16,0,24,24,0,0,1-16-4,20.881,20.881,0,0,1-3.28-3.84c-2.72-5.44-7.121-9.841-9.6-15.441a7.44,7.44,0,0,0-3.84-6.561h0a10.08,10.08,0,0,0-4.32-6.48h0a9.442,9.442,0,0,0-4.32-6.4h0a10,10,0,0,0-4.24-6.481h0a9.361,9.361,0,0,0-4.24-6.4h0a10.081,10.081,0,0,0-4.32-6.481h0a9.441,9.441,0,0,0-3.6-5.92h-.96l-10.081-15.121a8,8,0,0,1-.72-1.92,8,8,0,0,0-3.84-6.56h0a9.76,9.76,0,0,0-4.24-6.481h0a9.84,9.84,0,0,0-3.6-6.08h-.96c-6.16-8.8-11.681-18.082-18-26.8a11.528,11.528,0,0,1-1.2-2.88,8,8,0,0,0-3.84-6.56h0a9.441,9.441,0,0,0-4.32-6.481h0a9.521,9.521,0,0,0-3.68-6h-.96l-4.16-6.4a6,6,0,0,0-4.32-6.32,23.393,23.393,0,0,1-1.68-2.24c-.8-1.28-1.52-2.72-2.32-4.08s0-2.16-.8-2.8a25.113,25.113,0,0,0-4-3.04,5.119,5.119,0,0,0-2.24,3.36h0a4.4,4.4,0,0,0-1.68,3.68c0,5.28,0,10.561,0,16V321.2c0,3.84-.56,8-.88,11.6-.4,0-1.04.8-1.2,1.36s-.88,2.48-2.24,3.04h-8a42.321,42.321,0,0,1-15.121-1.92,11.449,11.449,0,0,1-1.6-2.4,24.025,24.025,0,0,1-.56-4.08c0-2.8.4-5.6.4-8.4V123.342a59.087,59.087,0,0,0-.4-8.4,1.44,1.44,0,0,0,0-1.84l4.08-6.561a73.675,73.675,0,0,1,9.281-1.2,40,40,0,0,1,19.922,2.48,18.244,18.244,0,0,1,4.48,5.04A239.409,239.409,0,0,0,281,134.222a13.681,13.681,0,0,0,4.56,6.64,18.2,18.2,0,0,0,0,2.08,1.36,1.36,0,0,0,0,.96c6.641,8,11.441,18,18.242,26.242a14.242,14.242,0,0,0,4.561,6.64,8.959,8.959,0,0,0,.48,3.04c5.76,8.641,11.521,17.281,17.361,25.842a1.133,1.133,0,0,1,.88.48,14.8,14.8,0,0,0,6.88,6.8Z" transform="translate(1600.7 733.768)" fill="#2e4050"/>
      <path id="Path_9" data-name="Path 9" d="M249.107,270.984c-2.4,3.84-3.2,8-5.52,12.161s-4.08,8-6,11.921a12.32,12.32,0,0,0-.72,2.96,16,16,0,0,0-4.72,6.8,1.76,1.76,0,0,0-1.44,2.08,30.243,30.243,0,0,0-7.121,8.481,17.043,17.043,0,0,0-5.761,5.68,24.882,24.882,0,0,0-8.481,7.041h0a11.92,11.92,0,0,0-6.881,4.32c-1.68,2.24-4.96,2.08-6.721,4.16-2.4-.48-3.28,2.16-5.28,2.64a4.96,4.96,0,0,0-4,0,67.851,67.851,0,0,1-16,4.56c-.56,0-.96.8-1.44,1.28h0c-4.4,0-8.8.48-13.121.88a16,16,0,0,0-3.68,1.44h-12c-.48,0-1.04-1.04-1.6-1.04l-17.521-1.2h0c-.8-.48-1.6-1.36-2.48-1.52-2.64,0-5.28-.56-8-.8h0a21.361,21.361,0,0,0-10.641-4.16h0s0-.72-.56-.88l-15.281-7.6h-.96c-1.68-2.24-3.44-4.32-6.641-4l-4.56-4.16a9.041,9.041,0,0,0-6-6l-4.16-4.56a6.56,6.56,0,0,0-4.32-6.08,16,16,0,0,1-4.48-6.641,6.4,6.4,0,0,0-4-6.32c-2.64-5.041-5.36-10-8-15.041a13.122,13.122,0,0,1-.64-4,10.721,10.721,0,0,0-2-8.641h0a11.121,11.121,0,0,0-2.24-8.481h0a104.818,104.818,0,0,0-.96-11.521,4.481,4.481,0,0,0-1.04-1.76.96.96,0,0,0,0-1.52V210.739a4.72,4.72,0,0,0,0-1.04,3.76,3.76,0,0,0,0-3.44A21.442,21.442,0,0,0,36.05,194.9h0a10.881,10.881,0,0,0,1.92-8.561s.4-.64,0-.96a17.922,17.922,0,0,1,3.2-11.361c.48-.88,1.84-1.28,1.6-2.48-.64-3.04,1.36-5.28,2.4-8a30.883,30.883,0,0,1,5.28-9.681,5.92,5.92,0,0,0,4.08-6,104.811,104.811,0,0,1,18.562-19.681,14.159,14.159,0,0,1,4.32-2.72c1.76-.8,2.88-3.04,4.72-3.84a17.445,17.445,0,0,0,4.16-2.64,36.479,36.479,0,0,1,5.2-2.96l4.32-2.24s.56-.56.88-.56a16.961,16.961,0,0,0,7.521-2.64,21.92,21.92,0,0,1,4.96-1.44,51.93,51.93,0,0,0,9.841-3.04,18.081,18.081,0,0,0,11.2-1.84h30.4a13.682,13.682,0,0,0,9.2,1.68,52.168,52.168,0,0,0,5.84,2.32A117.368,117.368,0,0,1,217.1,129.532a80.808,80.808,0,0,1,7.521,7.281l3.84,3.44a16,16,0,0,0,4.88,6.48,84.317,84.317,0,0,0,5.2,10,112.646,112.646,0,0,1,11.521,26.482c.72,1.84,0,4.24,1.76,5.68a34.082,34.082,0,0,0,1.04,4.96,19.523,19.523,0,0,0,1.68,3.44h0c0,4.32.48,8.561.8,12.881a9.682,9.682,0,0,0,1.2,2.64,12,12,0,0,0,0,8v16.241a48.642,48.642,0,0,0-1.92,15.521c-.56.48-.64.88,0,1.44a15.121,15.121,0,0,0-2.08,9.121h0a23.444,23.444,0,0,0-1.68,3.52,35.361,35.361,0,0,0-1.76,4.32Zm-24-47.284a212.555,212.555,0,0,0-2.24-21.682c-1.28-5.92-2.96-11.6-4.64-17.361a80.967,80.967,0,0,0-14.641-27.842,65.526,65.526,0,0,0-26.4-20.4,81.367,81.367,0,0,0-60.8-1.52,63.125,63.125,0,0,0-33.443,26.162,92.8,92.8,0,0,0-6.321,10.961,88.809,88.809,0,0,0-8.641,22.562,112.57,112.57,0,0,0-2.48,45.044,16.878,16.878,0,0,1,0,2.08,100.728,100.728,0,0,0,15.281,45.6,72.006,72.006,0,0,0,48.564,32.563,80.005,80.005,0,0,0,36.563-1.44,69.122,69.122,0,0,0,8.961-2.96,76.566,76.566,0,0,0,42.883-46.884,130.09,130.09,0,0,0,7.361-44.884Z" transform="translate(238.723 730.057)" fill="#2e4050"/>
      <path id="Path_10" data-name="Path 10" d="M191.406,192.9a.8.8,0,0,0,0-1.2,12.562,12.562,0,0,0,1.92-9.361,26.71,26.71,0,0,1,.96-5.04c.96-2.56,2.4-4.88,3.44-7.361s3.44-4.32,2.8-7.441c1.92-3.2,3.76-6.561,5.761-9.761a138.489,138.489,0,0,1,24.962-28c2.8-.64,4.32-3.28,6.641-4.48a69.764,69.764,0,0,1,10.641-5.36c1.68-.56,2.64-1.84,4.48-2.24a119.978,119.978,0,0,0,11.841-3.84l8.88-2.8a18.162,18.162,0,0,0,11.041-1.76h30.4a13.122,13.122,0,0,0,9.281,1.76,10.8,10.8,0,0,0,3.6,2,96.964,96.964,0,0,1,37.6,17.521c4.48,3.28,8.721,7.041,13.041,10.561a27.523,27.523,0,0,0,7.041,8.481c1.2,2.08,2.16,4.32,3.44,6.321a104.571,104.571,0,0,1,13.761,30.082c0,.64.8,1.04,1.2,1.6a49.477,49.477,0,0,0,1.04,4.96,19.9,19.9,0,0,0,1.76,3.44h0a15.281,15.281,0,0,0,2.08,9.121.865.865,0,0,0,0,1.36c0,6.32.48,12.561.8,18.882a11.042,11.042,0,0,0,1.2,2.88,7.28,7.28,0,0,0,0,5.2,17.772,17.772,0,0,0-1.04,3.92c-.48,5.92-.72,11.841-1.04,17.761h0a9.923,9.923,0,0,0-1.36,2.56c-.4,2.72-.48,5.44-.72,8h0a28.933,28.933,0,0,0-1.76,3.52,43.89,43.89,0,0,0-.96,4.88c-2.16,1.36-1.2,3.84-2.08,5.68-2.32,5.04-4.64,10.081-6.8,15.2a32,32,0,0,0-1.28,3.92,12.4,12.4,0,0,0-4.24,7.041h0a12.48,12.48,0,0,0-4.72,6.4c-1.2,0-1.6.88-1.6,2l-16.561,16.961h0a10.4,10.4,0,0,0-6.241,4.32h0a12.16,12.16,0,0,0-7.041,4.08l-3.44,2.56c-.64,0-1.44-.48-1.92,0a22.721,22.721,0,0,0-9.121,4.24c-2.16,0-4.48-.56-6.16,1.52a213.08,213.08,0,0,1-24,3.76c-.56,0-1.12.72-1.68,1.12H294.775a9.122,9.122,0,0,0-2.72-1.2,108.157,108.157,0,0,1-20.8-2.72,32.019,32.019,0,0,0-6.24,0,11.041,11.041,0,0,1-6.561-2.08c-1.12-1.12-3.36,0-4.4-2.08v-.96a28.644,28.644,0,0,0-9.441-3.84h0a9.761,9.761,0,0,0-6.561-3.921h0a9.681,9.681,0,0,0-6.241-4.32h0c-4.4-5.04-9.441-9.361-14.081-14.161h-.96l-2.08-2.32a8,8,0,0,0-4.08-6.561h0a10,10,0,0,0-3.44-5.92h-.96A99.521,99.521,0,0,1,195.727,276.5a11.121,11.121,0,0,0-2.16-8.641h0a10.961,10.961,0,0,0-2.16-8.561h0a14.242,14.242,0,0,0-2-9.2,7.2,7.2,0,0,0,0-5.6,375.391,375.391,0,0,1,0-39.123,2.4,2.4,0,0,0,0-1.04h0a19.6,19.6,0,0,0,2-11.441ZM379.982,230.26a138.248,138.248,0,0,0-8-48.644A84.965,84.965,0,0,0,355.5,153.534a64.485,64.485,0,0,0-28.722-18.962,77.447,77.447,0,0,0-43.684-2.8,100.584,100.584,0,0,0-16,4.8,62.965,62.965,0,0,0-28.882,24,116.009,116.009,0,0,0-18.962,57.445,76.014,76.014,0,0,0,1.2,22.082,36.612,36.612,0,0,1,0,4.16,98.166,98.166,0,0,0,14.481,42.483,72.005,72.005,0,0,0,48,33.123,82.326,82.326,0,0,0,35.6-.72,56.971,56.971,0,0,0,12-3.92,77.047,77.047,0,0,0,41.684-46.644A121.3,121.3,0,0,0,379.982,230.26Z" transform="translate(1322.187 730.058)" fill="#2e4050"/>
      <path id="Path_11" data-name="Path 11" d="M380.072,105.37c3.44,1.52,7.281,1.92,10.8,3.2a84.562,84.562,0,0,1,24.562,12.4c2.72,2.16,5.52,4,8,6a14.883,14.883,0,0,0,4.961,6.321c1.2,2.48,2.48,4.96,3.76,7.441a74.642,74.642,0,0,1,6.961,18.322,11.846,11.846,0,0,0,2,3.68l-.56,10.4c-.48.64-1.36,1.28-1.52,2s-.8,2.24-2.16,2.48-1.28-.64-1.92-.56a66.328,66.328,0,0,1-21.362-1.76,14.4,14.4,0,0,1-4.08-9.921,70.247,70.247,0,0,1-4.481-11.121,5.92,5.92,0,0,0-4.08-6l-4.56-4.561a6.32,6.32,0,0,0-5.76-4.64h0a9.44,9.44,0,0,0-8.8-4c-2.16-.64-4.96,0-6.64-2-.4-.56-.72-1.44-1.2-1.52a95.288,95.288,0,0,0-37.763,0c-.64,0-1.12.8-1.68,1.2a9.441,9.441,0,0,1-5.6,2.48c-.64,0-1.36-.56-1.92,0a22,22,0,0,0-11.041,6.561,5.441,5.441,0,0,0-4.16,3.92,10.721,10.721,0,0,0-4.481,6.641c-.56.64-1.52,1.28-1.6,2.08a45.509,45.509,0,0,0,0,5.76,5.6,5.6,0,0,0-1.12,1.68,29.682,29.682,0,0,0,0,13.521c0,.96,1.04,1.76,1.52,2.64-.56,2.32.8,4,1.76,5.841a21.521,21.521,0,0,0,8.641,8.881,117.926,117.926,0,0,0,14.881,7.521c4.16,1.6,8.961,1.84,13.041,3.52a23.522,23.522,0,0,0,10.161,1.76,11.921,11.921,0,0,0,8.721,1.76l2.64,1.92a93.688,93.688,0,0,1,19.2,4.24,49.688,49.688,0,0,1,9.2,2.24c1.92,1.12,4.64.72,7.041,1.76,5.6,2.64,11.681,4.32,17.282,7.2a74.808,74.808,0,0,1,21.522,16.561,42.079,42.079,0,0,1,5.6,8.8c1.36,2.8,2.88,5.52,4.32,8a12.161,12.161,0,0,0,2,8.8,1.28,1.28,0,0,0,0,1.76V285.7a1.12,1.12,0,0,0,0,1.68,36.836,36.836,0,0,0-1.36,3.84c-.64,2.32-1.04,4.64-1.6,6.96-1.52,1.12-1.36,2.72-1.2,4.32a28.237,28.237,0,0,0-4.64,8.481,12,12,0,0,0-3.921,6.08l-8.96,8.641a1.68,1.68,0,0,0-2,1.36,16.484,16.484,0,0,0-6.961,4.881,33.2,33.2,0,0,0-12,6c-3.68,1.12-7.44,2.16-11.121,3.36-.56,0-.96.88-1.52,1.36h0c-2.96,0-6.081,0-8.481,2.08h0c-5.04.4-10.161.72-15.2,1.2-.64,0-1.12.64-1.68,1.04H350.949c-.88-.48-1.68-1.28-2.64-1.36a96.009,96.009,0,0,1-32.482-6.721,6.562,6.562,0,0,0-3.041,0,38.885,38.885,0,0,1-12.8-6.561,5.76,5.76,0,0,0-6.321-4.24l-2.24-2.16a9.281,9.281,0,0,0-6.241-6.08l-4-4.48a6.32,6.32,0,0,0-4.4-6.4,106.923,106.923,0,0,1-8-14.961,10.639,10.639,0,0,1-.4-4,17.442,17.442,0,0,0-2.16-10.961,9.827,9.827,0,0,0-.72-1.84,4.56,4.56,0,0,1,0-6.481,11.439,11.439,0,0,0,1.36-2.8,32.563,32.563,0,0,1,25.282,0l2.8,3.6c.8,2.88,0,6.24,2.56,8.721a13.117,13.117,0,0,0,0,4,29.764,29.764,0,0,0,5.841,10.561,13.042,13.042,0,0,0,4.72,6.241,8,8,0,0,0,3.76,4.72,66.881,66.881,0,0,0,18.881,10.4,46.485,46.485,0,0,0,21.042,4.08c.56,0,1.12.96,1.76.96a102.093,102.093,0,0,0,12.081.8,16,16,0,0,0,8.8-1.76,47.282,47.282,0,0,0,16.561-2.56,57.368,57.368,0,0,0,13.761-8,3.6,3.6,0,0,1,.96-.48h1.92a16.4,16.4,0,0,0,6.481-6.321v-1.92c0-.64,2.4-2.72,2.16-4.56s2.16-3.52,2.16-5.6a9.038,9.038,0,0,1,1.92-5.44,8.961,8.961,0,0,0,0-9.761c0-3.04.56-6.161-2.24-8.481h0a6.16,6.16,0,0,0-4.241-6.16l-6.88-7.281c0-.64,0-1.52-.72-1.76-3.92-2.24-8-4.48-11.841-6.48a10.8,10.8,0,0,0-4,0c-2.16-.72-4.88.48-6.48-2v-.88a37.525,37.525,0,0,0-16-3.6h0c-.8-.56-1.52-1.44-2.4-1.52-2.72,0-5.361-.56-8-.8h0a13.851,13.851,0,0,0-2.48-1.52c-5.281-1.36-10.561-2.56-16-3.76-2.32-.48-4.64-.72-7.041-1.04h0c-2.48-2.56-5.6-2.08-8.721-2a8.483,8.483,0,0,0-2,0,4.56,4.56,0,0,1-4.48-1.76v-.96a16,16,0,0,0-10.081-3.04,4.781,4.781,0,0,1-4.4-2.4v-.96a10,10,0,0,0-5.841-3.44h0c-1.68-2.24-3.36-4.32-6.56-4.08l-6.4-6.321a6.561,6.561,0,0,0-4.16-6.16,17.2,17.2,0,0,1-4.24-12.881,21.843,21.843,0,0,0-1.92-11.041v-9.281a14.485,14.485,0,0,0,1.84-9.281c1.92-2.48-.96-5.6,1.2-8s1.52-4.56,3.6-6a27.923,27.923,0,0,1,8.641-12.881c3.44-3.36,6.16-8,11.2-9.041a26.564,26.564,0,0,1,11.921-7.521,89.768,89.768,0,0,1,13.761-4.64l11.121-2.96a62.888,62.888,0,0,0,8,0,12.794,12.794,0,0,0,3.521-1.36h24a13.361,13.361,0,0,0,8.08,1.04Z" transform="translate(1849.02 730.617)" fill="#2e4050"/>
      <path id="Path_12" data-name="Path 12" d="M7.068,183.346a.8.8,0,0,0,0-1.36v-21.2c0-.96.72-2.08.48-2.96a5.361,5.361,0,0,1,1.44-5.761,2.56,2.56,0,0,0,.8-1.76,5.44,5.44,0,0,1,2-5.44,40,40,0,0,1,14.241-20,6.32,6.32,0,0,0,5.84-4.24,5.52,5.52,0,0,1,3.36-2.08c1.12,0,1.92-1.84,3.04-2.56s2.48-.88,3.68-1.52,1.68-1.76,2.4-1.68a9.681,9.681,0,0,0,6.481-2.56c2.96.8,5.12-1.76,8-1.84a41.122,41.122,0,0,0,9.761-2.72h9.361a17.755,17.755,0,0,0,3.76-1.36,204.7,204.7,0,0,0,22.162,0,20,20,0,0,0,11.2,1.76,10.8,10.8,0,0,0,3.6,2,73.126,73.126,0,0,1,32,14.4,46.085,46.085,0,0,1,14.961,17.522c1.84,3.68,3.84,7.281,5.76,10.881s.4,6.081,2.88,8.4h0a24,24,0,0,0,0,4.16,24.8,24.8,0,0,1-.56,12.561h0a28.641,28.641,0,0,1-12.4,2.16h-8a20.643,20.643,0,0,0-6.481-3.6c-.48-.48-1.12-.88-1.36-1.44-.72-1.92,0-3.92-1.6-5.841s-1.12-3.84-1.84-5.68a48.487,48.487,0,0,1-2.88-5.281,17.761,17.761,0,0,0-2.88-5.44v-.96a13.921,13.921,0,0,0-8-8h0a8,8,0,0,0-6.481-4.08h0s0-.72-.56-.8a44,44,0,0,0-24.8-5.6h0c-.56,0-1.12-.96-1.68-1.04a101.933,101.933,0,0,0-24.642,2c-.64,0-1.12.72-1.68,1.12-2.64-.8-4.56,1.28-6.641,2.24a14.88,14.88,0,0,1-5.36,2c-2.24,0-3.6,1.84-4.88,3.44a12.8,12.8,0,0,0-6.961,7.041,8,8,0,0,0-3.6,8,12.161,12.161,0,0,0-2.72,8.8h0a7.36,7.36,0,0,0,0,8.881,15.281,15.281,0,0,0,4.64,12.241,42,42,0,0,0,17.6,12.561,201.37,201.37,0,0,0,22.8,6.64,22.249,22.249,0,0,0,5.2,0,12.641,12.641,0,0,0,9.121,1.84c.8.56,1.68,1.76,2.56,1.76,4.24,0,8,2.48,12.081,2.64s7.121,2.96,11.121,2.24c4.56,1.44,9.361,2.56,13.841,4.32A98.806,98.806,0,0,1,164.6,232.631a49.6,49.6,0,0,1,17.681,26.162,22.321,22.321,0,0,0,1.92,3.6,122.89,122.89,0,0,1-.48,31.6c-.48.48-1.2.88-1.28,1.36a18.962,18.962,0,0,1-2.24,6.48c-.4.72,0,1.92,0,2.88a17.761,17.761,0,0,0-4.56,8h0A27.763,27.763,0,0,0,168.6,321.2l-1.52,1.44L158.12,329.6c-1.52,0-3.04,0-3.6,2-2.72,1.36-5.52,2.64-8,4.16a38.648,38.648,0,0,0-9.121,4.48c-1.84,1.04-3.36,2.8-5.76,2.48a12.961,12.961,0,0,0-8,.56,202.435,202.435,0,0,1-26,3.2,82.092,82.092,0,0,1-12.481-.64l-18.8-1.36h0c-2.48-2.56-5.6-2-8.641-1.92a17.382,17.382,0,0,0-2,0,4.96,4.96,0,0,1-4.56-1.76s0-.88,0-.96a24,24,0,0,0-9.761-3.76h0a27.281,27.281,0,0,0-11.121-6.24h0l-17.041-16.8h0c-.8-2.48-1.68-4.96-4.48-5.921-2.72-2.8-3.28-6.721-5.44-9.761s-.88-4.56-2.24-6.72-.56-4.64-.8-7.041V268.873a10.081,10.081,0,0,1,8-3.44,23.361,23.361,0,0,1,12.161.96,13.52,13.52,0,0,0,4.56.72c1.44,1.68,2.88,2.72,2.88,4.64a3.52,3.52,0,0,0,1.44,3.6,49.438,49.438,0,0,0,.96,4.96,23.994,23.994,0,0,0,1.76,3.52,13.042,13.042,0,0,0,0,3.12,50.884,50.884,0,0,0,16.641,20.962,80.007,80.007,0,0,0,25.2,11.441,34.648,34.648,0,0,0,10.4.48c.64,0,1.2.88,1.84.88,4.56.4,9.121.8,13.681.8a11.041,11.041,0,0,0,7.041-1.68,37.285,37.285,0,0,0,19.842-4,57.2,57.2,0,0,0,18.962-13.121,17.842,17.842,0,0,0,4.88-9.841c0-1.84,1.84-2.8,2.24-4.48s1.04-1.04,1.2-1.68a27.682,27.682,0,0,0,0-14c0-.48-.88-.88-1.36-1.36a5.92,5.92,0,0,1-1.92-4.48,7.441,7.441,0,0,0-2-4.4,5.521,5.521,0,0,0,0-2,19.042,19.042,0,0,0-6.4-6.561h-2l-10.561-6.32v-.96a40.886,40.886,0,0,0-18.562-5.6h0s-.4-.72-.64-.8a58.088,58.088,0,0,0-18.4-3.44h0c-.88-.56-1.6-1.36-2.48-1.52-2.64-.4-5.36-.56-8-.8h0c-.88-.48-1.6-1.36-2.48-1.52a49.141,49.141,0,0,0-6-.64h0a9.68,9.68,0,0,0-2.48-1.68c-8-2.08-15.521-3.84-23.042-6.56a5.922,5.922,0,0,0-2.08,0h0s0-.72-.56-.8l-12.081-5.52h0a10.161,10.161,0,0,0-6.321-4.4h0c-3.92-4.16-8-8-11.921-12.321h-1.04a21.282,21.282,0,0,1-4-8.481A12.321,12.321,0,0,0,7.068,183.346Z" transform="translate(1.524 730.408)" fill="#2e4050"/>
      <path id="Path_13" data-name="Path 13" d="M104.3,270.058V109.965a10.321,10.321,0,0,1,4.4-4.64h12.641a33.12,33.12,0,0,1,10.481,1.04,18.4,18.4,0,0,1,2.32,5.6,55.224,55.224,0,0,0,1.84,8,14.882,14.882,0,0,0-1.04,8V236.855a12.16,12.16,0,0,0,1.04,7.121,52.162,52.162,0,0,0,0,18.322,15.521,15.521,0,0,0,1.84,11.121,14.4,14.4,0,0,0,0,4.16,66.949,66.949,0,0,0,3.44,8.641,51.124,51.124,0,0,0,21.922,22.8,53.2,53.2,0,0,0,28.882,6.4,15.281,15.281,0,0,0,11.281.64,3.116,3.116,0,0,0,.8-.64,47.283,47.283,0,0,0,27.282-6.641,45.042,45.042,0,0,0,8-6.24,6.4,6.4,0,0,0,6.561-6.481,56,56,0,0,0,9.121-20.161c0-.56.8-1.04,1.28-1.6s1.52-1.44,1.52-2.24a56.626,56.626,0,0,1,.56-9.761,13.121,13.121,0,0,0,0-8,22.881,22.881,0,0,0,1.12-11.361V127.646a187.145,187.145,0,0,1,.64-20.082l2.32-2.32a116.653,116.653,0,0,1,23.042.56l3.92,4c0,2.8.48,5.68.48,8.481V270.058a38.559,38.559,0,0,0-1.6,4.88c-.48,2-.72,4.08-1.04,6.161-2.24,1.28-.88,4-2.08,5.6a9.521,9.521,0,0,0-1.6,6.961,98.008,98.008,0,0,0-6.641,12.881c-1.92.56-1.92,2.16-1.92,3.76l-14.881,15.281a1.84,1.84,0,0,0-2.08,1.52,93.124,93.124,0,0,0-12.721,6.961c-1.76.72-3.12,2.56-5.28,1.92a5.44,5.44,0,0,1-5.04,2.64,9.121,9.121,0,0,0-8.641,1.68h0l-19.442,1.04a5.04,5.04,0,0,0-3.76,1.28h0c-6.24-.56-12.481-1.36-18.722-1.6a80,80,0,0,1-22.642-3.68,12.961,12.961,0,0,0-7.2-.88,27.521,27.521,0,0,1-12.4-4.64,106.809,106.809,0,0,1-11.041-8,35.926,35.926,0,0,0-10.4-10.481,16.4,16.4,0,0,1-4.4-6.48,6.561,6.561,0,0,0-4-6.561,2,2,0,0,1-.8-.64c0-.48-.88-1.04-.88-1.6,0-2.96-2.4-5.2-2.48-8a12.481,12.481,0,0,0-2-9.2.88.88,0,0,0,0-1.44,13.762,13.762,0,0,0-2-9.361Z" transform="translate(729.959 734.744)" fill="#2e4050"/>
      <path id="Path_14" data-name="Path 14" d="M218.956,336.418l-3.52-2.88v-188.9c0-1.76-.4-3.52-.56-5.2a6.961,6.961,0,0,0-6.8-8.561h-55.6a19.681,19.681,0,0,1-13.6-4.08h0a73.78,73.78,0,0,1,0-16.8l2.16-4.24c4.24,0,8.4-.8,12.561-.8H309.444a40,40,0,0,1,11.441,1.28,1.76,1.76,0,0,0,1.76,1.84,46.486,46.486,0,0,1,0,18.8h0a18.081,18.081,0,0,1-12.641,4H262.88a90.7,90.7,0,0,0-10.4.64c-.88,0-1.68,1.12-2.48,1.68a5.761,5.761,0,0,0-3.76,5.681V328.257a1.361,1.361,0,0,0,0,1.76l-4.4,6.32h0Z" transform="translate(968.611 734.869)" fill="#2e4050"/>
      <path id="Path_16" data-name="Path 16" d="M226.547,332.574l-3.92,3.84c-2.48,0-4.88.48-7.361.48H79.255l-4-4.32a48,48,0,0,1-.8-12.961V108.4s0-.72.56-.8a37.044,37.044,0,0,1,25.922-.8,10.079,10.079,0,0,1,2.4,1.84,45.763,45.763,0,0,1,.96,13.6V302.251a5.521,5.521,0,0,0,1.6,3.76c0,3.44,0,3.44,3.92,3.68a9.039,9.039,0,0,0,2.8,1.36h97.848c3.84,0,8,.48,11.6.72l3.92,3.92A46.084,46.084,0,0,1,226.547,332.574Z" transform="translate(520.104 734.153)" fill="#2e4050"/>
      <path id="Path_19" data-name="Path 19" d="M196.481,105.07l5.44,3.44a46.64,46.64,0,0,1,2.48,17.361q0,96.008,0,192.576v10.481c-1.84,2.08-1.76,5.44-4.96,6.721a41.768,41.768,0,0,1-14.161.96l-10.321-.72c-1.68-.88-1.6-2.72-2.24-4.16s0-2.08,0-3.12V109.47l2.56-3.28,6-1.2Z" transform="translate(1206.944 735.238)" fill="#2f4151"/>
    </g>
  </g>
</svg>
